<svg xmlns="http://www.w3.org/2000/svg" xmlns:xlink="http://www.w3.org/1999/xlink" id="body_1" preserveAspectRatio="xMinYMin meet" viewBox="0 0 793 1121"><defs><clipPath id="1"><path id="" clip-rule="evenodd" transform="matrix(1 0 0 1 0 0)" d="M0 841L0 -0.9199829L0 -0.9199829L595.2 -0.9199829L595.2 -0.9199829L595.2 841L595.2 841L0 841z" /></clipPath><clipPath id="2"><path id="" clip-rule="evenodd" transform="matrix(1 0 0 1 0 0)" d="M0 841.2401L595.44 841.2401L595.44 841.2401L595.44 -0.9199219L595.44 -0.9199219L0 -0.9199219z" /></clipPath></defs><g transform="matrix(1.333333 0 0 1.333333 0 0)"><g clip-path="url(#1)"><path id="1" transform="matrix(1 0 0 -1 0 841)" d="M0 -0.22998L595.45 -0.22998L595.45 -0.22998L595.45 841.92L595.45 841.92L0 841.92z" stroke="none" fill="#FFFFFF" fill-rule="evenodd" /><g clip-path="url(#2)"><path id="2" transform="matrix(1 0 0 -1 0 841)" d="M88.584 787.18L506.834 787.18L506.834 787.18L506.834 787.9L506.834 787.9L88.584 787.9z" stroke="none" fill="#000000" fill-rule="evenodd" /></g><path id="54" transform="matrix(1 0 0 -1 0 841)" d="M261.46 331.3L460.52 331.3L460.52 331.3L460.52 332.26L460.52 332.26L261.46 332.26z" stroke="none" fill="#000000" fill-rule="evenodd" /><path id="73" transform="matrix(1 0 0 -1 0 841)" d="M238.9 299.83L505.4 299.83L505.4 299.83L505.4 301.03L505.4 301.03L238.9 301.03z" stroke="none" fill="#000000" fill-rule="evenodd" /></g></g></svg>