<svg xmlns="http://www.w3.org/2000/svg" xmlns:xlink="http://www.w3.org/1999/xlink" id="body_43" preserveAspectRatio="xMinYMin meet" viewBox="0 0 793 1121"><defs><clipPath id="1"><path id="" clip-rule="evenodd" transform="matrix(1 0 0 1 0 0)" d="M0 841L0 -0.9199829L0 -0.9199829L595.2 -0.9199829L595.2 -0.9199829L595.2 841L595.2 841L0 841z" /></clipPath><clipPath id="2"><path id="" clip-rule="evenodd" transform="matrix(1 0 0 1 0 0)" d="M0 841.2401L595.44 841.2401L595.44 841.2401L595.44 -0.9199219L595.44 -0.9199219L0 -0.9199219z" /></clipPath><clipPath id="3"><path id="" clip-rule="evenodd" transform="matrix(1 0 0 1 0 0)" d="M293.16 791.32L302.28 791.32L302.28 791.32L302.28 781L302.28 781L293.16 781z" /></clipPath><clipPath id="4"><path id="" clip-rule="evenodd" transform="matrix(1 0 0 1 0 0)" d="M293.16 791.32L302.28 791.32L302.28 791.32L302.28 781L302.28 781L293.16 781z" /></clipPath><clipPath id="5"><path id="" clip-rule="evenodd" transform="matrix(1 0 0 1 0 0)" d="M293.16 791.32L302.28 791.32L302.28 791.32L302.28 781L302.28 781L293.16 781z" /></clipPath><clipPath id="6"><path id="" clip-rule="evenodd" transform="matrix(1 0 0 1 0 0)" d="M83.544 188.25L236.734 188.25L236.734 188.25L236.734 164.97L236.734 164.97L83.544 164.97z" /></clipPath><clipPath id="7"><path id="" clip-rule="evenodd" transform="matrix(1 0 0 1 0 0)" d="M83.544 188.25L236.734 188.25L236.734 188.25L236.734 164.97L236.734 164.97L83.544 164.97z" /></clipPath><clipPath id="8"><path id="" clip-rule="evenodd" transform="matrix(1 0 0 1 0 0)" d="M83.544 188.25L236.734 188.25L236.734 188.25L236.734 164.97L236.734 164.97L83.544 164.97z" /></clipPath><clipPath id="9"><path id="" clip-rule="evenodd" transform="matrix(1 0 0 1 0 0)" d="M237.22 188.25L512.12 188.25L512.12 188.25L512.12 164.97L512.12 164.97L237.22 164.97z" /></clipPath><clipPath id="10"><path id="" clip-rule="evenodd" transform="matrix(1 0 0 1 0 0)" d="M237.22 188.25L512.12 188.25L512.12 188.25L512.12 164.97L512.12 164.97L237.22 164.97z" /></clipPath><clipPath id="11"><path id="" clip-rule="evenodd" transform="matrix(1 0 0 1 0 0)" d="M237.22 188.25L512.12 188.25L512.12 188.25L512.12 164.97L512.12 164.97L237.22 164.97z" /></clipPath><clipPath id="12"><path id="" clip-rule="evenodd" transform="matrix(1 0 0 1 0 0)" d="M83.544 307.58L236.734 307.58L236.734 307.58L236.734 188.73L236.734 188.73L83.544 188.73z" /></clipPath><clipPath id="13"><path id="" clip-rule="evenodd" transform="matrix(1 0 0 1 0 0)" d="M83.544 307.58L236.734 307.58L236.734 307.58L236.734 188.73L236.734 188.73L83.544 188.73z" /></clipPath><clipPath id="14"><path id="" clip-rule="evenodd" transform="matrix(1 0 0 1 0 0)" d="M83.544 307.58L236.734 307.58L236.734 307.58L236.734 188.73L236.734 188.73L83.544 188.73z" /></clipPath><clipPath id="15"><path id="" clip-rule="evenodd" transform="matrix(1 0 0 1 0 0)" d="M237.22 212.27L512.12 212.27L512.12 212.27L512.12 188.726L512.12 188.726L237.22 188.726z" /></clipPath><clipPath id="16"><path id="" clip-rule="evenodd" transform="matrix(1 0 0 1 0 0)" d="M237.22 212.27L512.12 212.27L512.12 212.27L512.12 188.726L512.12 188.726L237.22 188.726z" /></clipPath><clipPath id="17"><path id="" clip-rule="evenodd" transform="matrix(1 0 0 1 0 0)" d="M237.22 212.27L512.12 212.27L512.12 212.27L512.12 188.726L512.12 188.726L237.22 188.726z" /></clipPath><clipPath id="18"><path id="" clip-rule="evenodd" transform="matrix(1 0 0 1 0 0)" d="M237.22 236.03L512.12 236.03L512.12 236.03L512.12 212.75L512.12 212.75L237.22 212.75z" /></clipPath><clipPath id="19"><path id="" clip-rule="evenodd" transform="matrix(1 0 0 1 0 0)" d="M237.22 236.03L512.12 236.03L512.12 236.03L512.12 212.75L512.12 212.75L237.22 212.75z" /></clipPath><clipPath id="20"><path id="" clip-rule="evenodd" transform="matrix(1 0 0 1 0 0)" d="M237.22 236.03L512.12 236.03L512.12 236.03L512.12 212.75L512.12 212.75L237.22 212.75z" /></clipPath><clipPath id="21"><path id="" clip-rule="evenodd" transform="matrix(1 0 0 1 0 0)" d="M237.22 259.79L512.12 259.79L512.12 259.79L512.12 236.5099L512.12 236.5099L237.22 236.5099z" /></clipPath><clipPath id="22"><path id="" clip-rule="evenodd" transform="matrix(1 0 0 1 0 0)" d="M237.22 259.79L512.12 259.79L512.12 259.79L512.12 236.5099L512.12 236.5099L237.22 236.5099z" /></clipPath><clipPath id="23"><path id="" clip-rule="evenodd" transform="matrix(1 0 0 1 0 0)" d="M237.22 259.79L512.12 259.79L512.12 259.79L512.12 236.5099L512.12 236.5099L237.22 236.5099z" /></clipPath><clipPath id="24"><path id="" clip-rule="evenodd" transform="matrix(1 0 0 1 0 0)" d="M237.22 283.82L512.12 283.82L512.12 283.82L512.12 260.516L512.12 260.516L237.22 260.516z" /></clipPath><clipPath id="25"><path id="" clip-rule="evenodd" transform="matrix(1 0 0 1 0 0)" d="M237.22 283.82L512.12 283.82L512.12 283.82L512.12 260.516L512.12 260.516L237.22 260.516z" /></clipPath><clipPath id="26"><path id="" clip-rule="evenodd" transform="matrix(1 0 0 1 0 0)" d="M237.22 283.82L512.12 283.82L512.12 283.82L512.12 260.516L512.12 260.516L237.22 260.516z" /></clipPath><clipPath id="27"><path id="" clip-rule="evenodd" transform="matrix(1 0 0 1 0 0)" d="M237.22 307.58L512.12 307.58L512.12 307.58L512.12 284.3L512.12 284.3L237.22 284.3z" /></clipPath><clipPath id="28"><path id="" clip-rule="evenodd" transform="matrix(1 0 0 1 0 0)" d="M237.22 307.58L512.12 307.58L512.12 307.58L512.12 284.3L512.12 284.3L237.22 284.3z" /></clipPath><clipPath id="29"><path id="" clip-rule="evenodd" transform="matrix(1 0 0 1 0 0)" d="M237.22 307.58L512.12 307.58L512.12 307.58L512.12 284.3L512.12 284.3L237.22 284.3z" /></clipPath><clipPath id="30"><path id="" clip-rule="evenodd" transform="matrix(1 0 0 1 0 0)" d="M83.544 403.12L236.734 403.12L236.734 403.12L236.734 308.056L236.734 308.056L83.544 308.056z" /></clipPath><clipPath id="31"><path id="" clip-rule="evenodd" transform="matrix(1 0 0 1 0 0)" d="M83.544 403.12L236.734 403.12L236.734 403.12L236.734 308.056L236.734 308.056L83.544 308.056z" /></clipPath><clipPath id="32"><path id="" clip-rule="evenodd" transform="matrix(1 0 0 1 0 0)" d="M83.544 403.12L236.734 403.12L236.734 403.12L236.734 308.056L236.734 308.056L83.544 308.056z" /></clipPath><clipPath id="33"><path id="" clip-rule="evenodd" transform="matrix(1 0 0 1 0 0)" d="M237.22 331.58L512.12 331.58L512.12 331.58L512.12 308.06L512.12 308.06L237.22 308.06z" /></clipPath><clipPath id="34"><path id="" clip-rule="evenodd" transform="matrix(1 0 0 1 0 0)" d="M237.22 331.58L512.12 331.58L512.12 331.58L512.12 308.06L512.12 308.06L237.22 308.06z" /></clipPath><clipPath id="35"><path id="" clip-rule="evenodd" transform="matrix(1 0 0 1 0 0)" d="M237.22 331.58L512.12 331.58L512.12 331.58L512.12 308.06L512.12 308.06L237.22 308.06z" /></clipPath><clipPath id="36"><path id="" clip-rule="evenodd" transform="matrix(1 0 0 1 0 0)" d="M237.22 355.34L512.12 355.34L512.12 355.34L512.12 332.06L512.12 332.06L237.22 332.06z" /></clipPath><clipPath id="37"><path id="" clip-rule="evenodd" transform="matrix(1 0 0 1 0 0)" d="M237.22 355.34L512.12 355.34L512.12 355.34L512.12 332.06L512.12 332.06L237.22 332.06z" /></clipPath><clipPath id="38"><path id="" clip-rule="evenodd" transform="matrix(1 0 0 1 0 0)" d="M237.22 355.34L512.12 355.34L512.12 355.34L512.12 332.06L512.12 332.06L237.22 332.06z" /></clipPath><clipPath id="39"><path id="" clip-rule="evenodd" transform="matrix(1 0 0 1 0 0)" d="M237.22 379.12L512.12 379.12L512.12 379.12L512.12 355.816L512.12 355.816L237.22 355.816z" /></clipPath><clipPath id="40"><path id="" clip-rule="evenodd" transform="matrix(1 0 0 1 0 0)" d="M237.22 379.12L512.12 379.12L512.12 379.12L512.12 355.816L512.12 355.816L237.22 355.816z" /></clipPath><clipPath id="41"><path id="" clip-rule="evenodd" transform="matrix(1 0 0 1 0 0)" d="M237.22 379.12L512.12 379.12L512.12 379.12L512.12 355.816L512.12 355.816L237.22 355.816z" /></clipPath><clipPath id="42"><path id="" clip-rule="evenodd" transform="matrix(1 0 0 1 0 0)" d="M237.22 403.12L512.12 403.12L512.12 403.12L512.12 379.6L512.12 379.6L237.22 379.6z" /></clipPath><clipPath id="43"><path id="" clip-rule="evenodd" transform="matrix(1 0 0 1 0 0)" d="M237.22 403.12L512.12 403.12L512.12 403.12L512.12 379.6L512.12 379.6L237.22 379.6z" /></clipPath><clipPath id="44"><path id="" clip-rule="evenodd" transform="matrix(1 0 0 1 0 0)" d="M237.22 403.12L512.12 403.12L512.12 403.12L512.12 379.6L512.12 379.6L237.22 379.6z" /></clipPath><clipPath id="45"><path id="" clip-rule="evenodd" transform="matrix(1 0 0 1 0 0)" d="M83.544 498.42L236.734 498.42L236.734 498.42L236.734 403.596L236.734 403.596L83.544 403.596z" /></clipPath><clipPath id="46"><path id="" clip-rule="evenodd" transform="matrix(1 0 0 1 0 0)" d="M83.544 498.42L236.734 498.42L236.734 498.42L236.734 403.596L236.734 403.596L83.544 403.596z" /></clipPath><clipPath id="47"><path id="" clip-rule="evenodd" transform="matrix(1 0 0 1 0 0)" d="M83.544 498.42L236.734 498.42L236.734 498.42L236.734 403.596L236.734 403.596L83.544 403.596z" /></clipPath><clipPath id="48"><path id="" clip-rule="evenodd" transform="matrix(1 0 0 1 0 0)" d="M237.22 426.88L512.12 426.88L512.12 426.88L512.12 403.6L512.12 403.6L237.22 403.6z" /></clipPath><clipPath id="49"><path id="" clip-rule="evenodd" transform="matrix(1 0 0 1 0 0)" d="M237.22 426.88L512.12 426.88L512.12 426.88L512.12 403.6L512.12 403.6L237.22 403.6z" /></clipPath><clipPath id="50"><path id="" clip-rule="evenodd" transform="matrix(1 0 0 1 0 0)" d="M237.22 426.88L512.12 426.88L512.12 426.88L512.12 403.6L512.12 403.6L237.22 403.6z" /></clipPath><clipPath id="51"><path id="" clip-rule="evenodd" transform="matrix(1 0 0 1 0 0)" d="M237.22 450.66L512.12 450.66L512.12 450.66L512.12 427.356L512.12 427.356L237.22 427.356z" /></clipPath><clipPath id="52"><path id="" clip-rule="evenodd" transform="matrix(1 0 0 1 0 0)" d="M237.22 450.66L512.12 450.66L512.12 450.66L512.12 427.356L512.12 427.356L237.22 427.356z" /></clipPath><clipPath id="53"><path id="" clip-rule="evenodd" transform="matrix(1 0 0 1 0 0)" d="M237.22 450.66L512.12 450.66L512.12 450.66L512.12 427.356L512.12 427.356L237.22 427.356z" /></clipPath><clipPath id="54"><path id="" clip-rule="evenodd" transform="matrix(1 0 0 1 0 0)" d="M237.22 474.66L512.12 474.66L512.12 474.66L512.12 451.14L512.12 451.14L237.22 451.14z" /></clipPath><clipPath id="55"><path id="" clip-rule="evenodd" transform="matrix(1 0 0 1 0 0)" d="M237.22 474.66L512.12 474.66L512.12 474.66L512.12 451.14L512.12 451.14L237.22 451.14z" /></clipPath><clipPath id="56"><path id="" clip-rule="evenodd" transform="matrix(1 0 0 1 0 0)" d="M237.22 474.66L512.12 474.66L512.12 474.66L512.12 451.14L512.12 451.14L237.22 451.14z" /></clipPath><clipPath id="57"><path id="" clip-rule="evenodd" transform="matrix(1 0 0 1 0 0)" d="M237.22 498.42L512.12 498.42L512.12 498.42L512.12 475.14L512.12 475.14L237.22 475.14z" /></clipPath><clipPath id="58"><path id="" clip-rule="evenodd" transform="matrix(1 0 0 1 0 0)" d="M237.22 498.42L512.12 498.42L512.12 498.42L512.12 475.14L512.12 475.14L237.22 475.14z" /></clipPath><clipPath id="59"><path id="" clip-rule="evenodd" transform="matrix(1 0 0 1 0 0)" d="M237.22 498.42L512.12 498.42L512.12 498.42L512.12 475.14L512.12 475.14L237.22 475.14z" /></clipPath><clipPath id="60"><path id="" clip-rule="evenodd" transform="matrix(1 0 0 1 0 0)" d="M83.544 569.97L236.734 569.97L236.734 569.97L236.734 498.906L236.734 498.906L83.544 498.906z" /></clipPath><clipPath id="61"><path id="" clip-rule="evenodd" transform="matrix(1 0 0 1 0 0)" d="M83.544 569.97L236.734 569.97L236.734 569.97L236.734 498.906L236.734 498.906L83.544 498.906z" /></clipPath><clipPath id="62"><path id="" clip-rule="evenodd" transform="matrix(1 0 0 1 0 0)" d="M83.544 569.97L236.734 569.97L236.734 569.97L236.734 498.906L236.734 498.906L83.544 498.906z" /></clipPath><clipPath id="63"><path id="" clip-rule="evenodd" transform="matrix(1 0 0 1 0 0)" d="M83.544 569.97L236.734 569.97L236.734 569.97L236.734 498.906L236.734 498.906L83.544 498.906z" /></clipPath><clipPath id="64"><path id="" clip-rule="evenodd" transform="matrix(1 0 0 1 0 0)" d="M237.22 522.18L512.12 522.18L512.12 522.18L512.12 498.9L512.12 498.9L237.22 498.9z" /></clipPath><clipPath id="65"><path id="" clip-rule="evenodd" transform="matrix(1 0 0 1 0 0)" d="M237.22 522.18L512.12 522.18L512.12 522.18L512.12 498.9L512.12 498.9L237.22 498.9z" /></clipPath><clipPath id="66"><path id="" clip-rule="evenodd" transform="matrix(1 0 0 1 0 0)" d="M237.22 522.18L512.12 522.18L512.12 522.18L512.12 498.9L512.12 498.9L237.22 498.9z" /></clipPath><clipPath id="67"><path id="" clip-rule="evenodd" transform="matrix(1 0 0 1 0 0)" d="M237.22 546.21L512.12 546.21L512.12 546.21L512.12 522.666L512.12 522.666L237.22 522.666z" /></clipPath><clipPath id="68"><path id="" clip-rule="evenodd" transform="matrix(1 0 0 1 0 0)" d="M237.22 546.21L512.12 546.21L512.12 546.21L512.12 522.666L512.12 522.666L237.22 522.666z" /></clipPath><clipPath id="69"><path id="" clip-rule="evenodd" transform="matrix(1 0 0 1 0 0)" d="M237.22 546.21L512.12 546.21L512.12 546.21L512.12 522.666L512.12 522.666L237.22 522.666z" /></clipPath><clipPath id="70"><path id="" clip-rule="evenodd" transform="matrix(1 0 0 1 0 0)" d="M237.22 569.97L512.12 569.97L512.12 569.97L512.12 546.69L512.12 546.69L237.22 546.69z" /></clipPath><clipPath id="71"><path id="" clip-rule="evenodd" transform="matrix(1 0 0 1 0 0)" d="M237.22 569.97L512.12 569.97L512.12 569.97L512.12 546.69L512.12 546.69L237.22 546.69z" /></clipPath><clipPath id="72"><path id="" clip-rule="evenodd" transform="matrix(1 0 0 1 0 0)" d="M237.22 569.97L512.12 569.97L512.12 569.97L512.12 546.69L512.12 546.69L237.22 546.69z" /></clipPath><clipPath id="73"><path id="" clip-rule="evenodd" transform="matrix(1 0 0 1 0 0)" d="M83.544 593.73L236.734 593.73L236.734 593.73L236.734 570.45L236.734 570.45L83.544 570.45z" /></clipPath><clipPath id="74"><path id="" clip-rule="evenodd" transform="matrix(1 0 0 1 0 0)" d="M83.544 593.73L236.734 593.73L236.734 593.73L236.734 570.45L236.734 570.45L83.544 570.45z" /></clipPath><clipPath id="75"><path id="" clip-rule="evenodd" transform="matrix(1 0 0 1 0 0)" d="M83.544 593.73L236.734 593.73L236.734 593.73L236.734 570.45L236.734 570.45L83.544 570.45z" /></clipPath><clipPath id="76"><path id="" clip-rule="evenodd" transform="matrix(1 0 0 1 0 0)" d="M237.22 593.73L512.12 593.73L512.12 593.73L512.12 570.45L512.12 570.45L237.22 570.45z" /></clipPath><clipPath id="77"><path id="" clip-rule="evenodd" transform="matrix(1 0 0 1 0 0)" d="M237.22 593.73L512.12 593.73L512.12 593.73L512.12 570.45L512.12 570.45L237.22 570.45z" /></clipPath><clipPath id="78"><path id="" clip-rule="evenodd" transform="matrix(1 0 0 1 0 0)" d="M237.22 593.73L512.12 593.73L512.12 593.73L512.12 570.45L512.12 570.45L237.22 570.45z" /></clipPath></defs><g transform="matrix(1.333333 0 0 1.333333 0 0)"><g clip-path="url(#1)"><path id="1" transform="matrix(1 0 0 -1 0 841)" d="M0 -0.22998L595.45 -0.22998L595.45 -0.22998L595.45 841.92L595.45 841.92L0 841.92z" stroke="none" fill="#FFFFFF" fill-rule="evenodd" /><g clip-path="url(#2)"><path id="19" transform="matrix(1 0 0 -1 0 841)" d="M88.584 772.54L506.834 772.54L506.834 772.54L506.834 773.98L506.834 773.98L88.584 773.98z" stroke="none" fill="#000000" fill-rule="evenodd" /><path id="20" transform="matrix(1 0 0 -1 0 841)" d="M88.584 776.86L506.834 776.86L506.834 776.86L506.834 777.58L506.834 777.58L88.584 777.58z" stroke="none" fill="#000000" fill-rule="evenodd" /></g><g clip-path="url(#3)"><g clip-path="url(#4)"></g><g clip-path="url(#5)"></g></g><path id="117" transform="matrix(1 0 0 -1 0 841)" d="M83.544 652.75L88.584 652.75L88.584 652.75L88.584 676.03L88.584 676.03L83.544 676.03z" stroke="none" fill="#C0C0C0" fill-rule="evenodd" /><path id="118" transform="matrix(1 0 0 -1 0 841)" d="M231.7 652.75L236.74 652.75L236.74 652.75L236.74 676.03L236.74 676.03L231.7 676.03z" stroke="none" fill="#C0C0C0" fill-rule="evenodd" /><g clip-path="url(#6)"><path id="119" transform="matrix(1 0 0 -1 0 841)" d="M88.584 652.75L231.694 652.75L231.694 652.75L231.694 676.03L231.694 676.03L88.584 676.03z" stroke="none" fill="#C0C0C0" fill-rule="evenodd" /><g clip-path="url(#7)"></g><g clip-path="url(#8)"></g></g><path id="124" transform="matrix(1 0 0 -1 0 841)" d="M237.22 652.75L242.5 652.75L242.5 652.75L242.5 676.03L242.5 676.03L237.22 676.03z" stroke="none" fill="#C0C0C0" fill-rule="evenodd" /><path id="125" transform="matrix(1 0 0 -1 0 841)" d="M506.83 652.75L512.11 652.75L512.11 652.75L512.11 676.03L512.11 676.03L506.83 676.03z" stroke="none" fill="#C0C0C0" fill-rule="evenodd" /><g clip-path="url(#9)"><path id="126" transform="matrix(1 0 0 -1 0 841)" d="M242.5 652.75L506.84 652.75L506.84 652.75L506.84 676.03L506.84 676.03L242.5 676.03z" stroke="none" fill="#C0C0C0" fill-rule="evenodd" /><g clip-path="url(#10)"></g><g clip-path="url(#11)"></g></g><path id="131" transform="matrix(1 0 0 -1 0 841)" d="M83.064 676.03L83.54401 676.03L83.54401 676.03L83.54401 676.51L83.54401 676.51L83.064 676.51z" stroke="none" fill="#000000" fill-rule="evenodd" /><path id="132" transform="matrix(1 0 0 -1 0 841)" d="M83.064 676.03L83.54401 676.03L83.54401 676.03L83.54401 676.51L83.54401 676.51L83.064 676.51z" stroke="none" fill="#000000" fill-rule="evenodd" /><path id="133" transform="matrix(1 0 0 -1 0 841)" d="M83.544 676.03L236.734 676.03L236.734 676.03L236.734 676.51L236.734 676.51L83.544 676.51z" stroke="none" fill="#000000" fill-rule="evenodd" /><path id="134" transform="matrix(1 0 0 -1 0 841)" d="M236.74 676.03L237.22 676.03L237.22 676.03L237.22 676.51L237.22 676.51L236.74 676.51z" stroke="none" fill="#000000" fill-rule="evenodd" /><path id="135" transform="matrix(1 0 0 -1 0 841)" d="M237.22 676.03L512.12 676.03L512.12 676.03L512.12 676.51L512.12 676.51L237.22 676.51z" stroke="none" fill="#000000" fill-rule="evenodd" /><path id="136" transform="matrix(1 0 0 -1 0 841)" d="M512.11 676.03L512.59 676.03L512.59 676.03L512.59 676.51L512.59 676.51L512.11 676.51z" stroke="none" fill="#000000" fill-rule="evenodd" /><path id="137" transform="matrix(1 0 0 -1 0 841)" d="M512.11 676.03L512.59 676.03L512.59 676.03L512.59 676.51L512.59 676.51L512.11 676.51z" stroke="none" fill="#000000" fill-rule="evenodd" /><path id="138" transform="matrix(1 0 0 -1 0 841)" d="M83.064 652.75L83.54401 652.75L83.54401 652.75L83.54401 676.03L83.54401 676.03L83.064 676.03z" stroke="none" fill="#000000" fill-rule="evenodd" /><path id="139" transform="matrix(1 0 0 -1 0 841)" d="M236.74 652.75L237.22 652.75L237.22 652.75L237.22 676.03L237.22 676.03L236.74 676.03z" stroke="none" fill="#000000" fill-rule="evenodd" /><path id="140" transform="matrix(1 0 0 -1 0 841)" d="M512.11 652.75L512.59 652.75L512.59 652.75L512.59 676.03L512.59 676.03L512.11 676.03z" stroke="none" fill="#000000" fill-rule="evenodd" /><g clip-path="url(#12)"><g clip-path="url(#13)"></g><g clip-path="url(#14)"></g></g><g clip-path="url(#15)"><g clip-path="url(#16)"></g><g clip-path="url(#17)"></g></g><path id="149" transform="matrix(1 0 0 -1 0 841)" d="M83.064 652.27L83.54401 652.27L83.54401 652.27L83.54401 652.75L83.54401 652.75L83.064 652.75z" stroke="none" fill="#000000" fill-rule="evenodd" /><path id="150" transform="matrix(1 0 0 -1 0 841)" d="M83.544 652.27L236.734 652.27L236.734 652.27L236.734 652.75L236.734 652.75L83.544 652.75z" stroke="none" fill="#000000" fill-rule="evenodd" /><path id="151" transform="matrix(1 0 0 -1 0 841)" d="M236.74 652.27L237.22 652.27L237.22 652.27L237.22 652.75L237.22 652.75L236.74 652.75z" stroke="none" fill="#000000" fill-rule="evenodd" /><path id="152" transform="matrix(1 0 0 -1 0 841)" d="M237.22 652.27L512.12 652.27L512.12 652.27L512.12 652.75L512.12 652.75L237.22 652.75z" stroke="none" fill="#000000" fill-rule="evenodd" /><path id="153" transform="matrix(1 0 0 -1 0 841)" d="M512.11 652.27L512.59 652.27L512.59 652.27L512.59 652.75L512.59 652.75L512.11 652.75z" stroke="none" fill="#000000" fill-rule="evenodd" /><path id="154" transform="matrix(1 0 0 -1 0 841)" d="M83.064 628.73L83.54401 628.73L83.54401 628.73L83.54401 652.274L83.54401 652.274L83.064 652.274z" stroke="none" fill="#000000" fill-rule="evenodd" /><path id="155" transform="matrix(1 0 0 -1 0 841)" d="M236.74 628.73L237.22 628.73L237.22 628.73L237.22 652.274L237.22 652.274L236.74 652.274z" stroke="none" fill="#000000" fill-rule="evenodd" /><path id="156" transform="matrix(1 0 0 -1 0 841)" d="M512.11 628.73L512.59 628.73L512.59 628.73L512.59 652.274L512.59 652.274L512.11 652.274z" stroke="none" fill="#000000" fill-rule="evenodd" /><g clip-path="url(#18)"><g clip-path="url(#19)"></g><g clip-path="url(#20)"></g></g><path id="161" transform="matrix(1 0 0 -1 0 841)" d="M83.064 628.25L83.54401 628.25L83.54401 628.25L83.54401 628.73L83.54401 628.73L83.064 628.73z" stroke="none" fill="#000000" fill-rule="evenodd" /><path id="162" transform="matrix(1 0 0 -1 0 841)" d="M236.74 628.25L237.22 628.25L237.22 628.25L237.22 628.73L237.22 628.73L236.74 628.73z" stroke="none" fill="#000000" fill-rule="evenodd" /><path id="163" transform="matrix(1 0 0 -1 0 841)" d="M237.22 628.25L512.12 628.25L512.12 628.25L512.12 628.73L512.12 628.73L237.22 628.73z" stroke="none" fill="#000000" fill-rule="evenodd" /><path id="164" transform="matrix(1 0 0 -1 0 841)" d="M512.11 628.25L512.59 628.25L512.59 628.25L512.59 628.73L512.59 628.73L512.11 628.73z" stroke="none" fill="#000000" fill-rule="evenodd" /><path id="165" transform="matrix(1 0 0 -1 0 841)" d="M83.064 604.97L83.54401 604.97L83.54401 604.97L83.54401 628.25L83.54401 628.25L83.064 628.25z" stroke="none" fill="#000000" fill-rule="evenodd" /><path id="166" transform="matrix(1 0 0 -1 0 841)" d="M236.74 604.97L237.22 604.97L237.22 604.97L237.22 628.25L237.22 628.25L236.74 628.25z" stroke="none" fill="#000000" fill-rule="evenodd" /><path id="167" transform="matrix(1 0 0 -1 0 841)" d="M512.11 604.97L512.59 604.97L512.59 604.97L512.59 628.25L512.59 628.25L512.11 628.25z" stroke="none" fill="#000000" fill-rule="evenodd" /><g clip-path="url(#21)"><g clip-path="url(#22)"></g><g clip-path="url(#23)"></g></g><path id="172" transform="matrix(1 0 0 -1 0 841)" d="M83.064 604.49L83.54401 604.49L83.54401 604.49L83.54401 604.97L83.54401 604.97L83.064 604.97z" stroke="none" fill="#000000" fill-rule="evenodd" /><path id="173" transform="matrix(1 0 0 -1 0 841)" d="M236.74 604.49L237.22 604.49L237.22 604.49L237.22 604.97L237.22 604.97L236.74 604.97z" stroke="none" fill="#000000" fill-rule="evenodd" /><path id="174" transform="matrix(1 0 0 -1 0 841)" d="M237.22 604.49L512.12 604.49L512.12 604.49L512.12 604.97L512.12 604.97L237.22 604.97z" stroke="none" fill="#000000" fill-rule="evenodd" /><path id="175" transform="matrix(1 0 0 -1 0 841)" d="M512.11 604.49L512.59 604.49L512.59 604.49L512.59 604.97L512.59 604.97L512.11 604.97z" stroke="none" fill="#000000" fill-rule="evenodd" /><path id="176" transform="matrix(1 0 0 -1 0 841)" d="M83.064 581.21L83.54401 581.21L83.54401 581.21L83.54401 604.4901L83.54401 604.4901L83.064 604.4901z" stroke="none" fill="#000000" fill-rule="evenodd" /><path id="177" transform="matrix(1 0 0 -1 0 841)" d="M236.74 581.21L237.22 581.21L237.22 581.21L237.22 604.4901L237.22 604.4901L236.74 604.4901z" stroke="none" fill="#000000" fill-rule="evenodd" /><path id="178" transform="matrix(1 0 0 -1 0 841)" d="M512.11 581.21L512.59 581.21L512.59 581.21L512.59 604.4901L512.59 604.4901L512.11 604.4901z" stroke="none" fill="#000000" fill-rule="evenodd" /><g clip-path="url(#24)"><g clip-path="url(#25)"></g><g clip-path="url(#26)"></g></g><path id="183" transform="matrix(1 0 0 -1 0 841)" d="M83.064 580.73L83.54401 580.73L83.54401 580.73L83.54401 581.21L83.54401 581.21L83.064 581.21z" stroke="none" fill="#000000" fill-rule="evenodd" /><path id="184" transform="matrix(1 0 0 -1 0 841)" d="M236.74 580.73L237.22 580.73L237.22 580.73L237.22 581.21L237.22 581.21L236.74 581.21z" stroke="none" fill="#000000" fill-rule="evenodd" /><path id="185" transform="matrix(1 0 0 -1 0 841)" d="M237.22 580.73L512.12 580.73L512.12 580.73L512.12 581.21L512.12 581.21L237.22 581.21z" stroke="none" fill="#000000" fill-rule="evenodd" /><path id="186" transform="matrix(1 0 0 -1 0 841)" d="M512.11 580.73L512.59 580.73L512.59 580.73L512.59 581.21L512.59 581.21L512.11 581.21z" stroke="none" fill="#000000" fill-rule="evenodd" /><path id="187" transform="matrix(1 0 0 -1 0 841)" d="M83.064 557.18L83.54401 557.18L83.54401 557.18L83.54401 580.724L83.54401 580.724L83.064 580.724z" stroke="none" fill="#000000" fill-rule="evenodd" /><path id="188" transform="matrix(1 0 0 -1 0 841)" d="M236.74 557.18L237.22 557.18L237.22 557.18L237.22 580.724L237.22 580.724L236.74 580.724z" stroke="none" fill="#000000" fill-rule="evenodd" /><path id="189" transform="matrix(1 0 0 -1 0 841)" d="M512.11 557.18L512.59 557.18L512.59 557.18L512.59 580.724L512.59 580.724L512.11 580.724z" stroke="none" fill="#000000" fill-rule="evenodd" /><g clip-path="url(#27)"><g clip-path="url(#28)"></g><g clip-path="url(#29)"></g></g><path id="194" transform="matrix(1 0 0 -1 0 841)" d="M83.064 556.7L83.54401 556.7L83.54401 556.7L83.54401 557.18L83.54401 557.18L83.064 557.18z" stroke="none" fill="#000000" fill-rule="evenodd" /><path id="195" transform="matrix(1 0 0 -1 0 841)" d="M236.74 556.7L237.22 556.7L237.22 556.7L237.22 557.18L237.22 557.18L236.74 557.18z" stroke="none" fill="#000000" fill-rule="evenodd" /><path id="196" transform="matrix(1 0 0 -1 0 841)" d="M237.22 556.7L512.12 556.7L512.12 556.7L512.12 557.18L512.12 557.18L237.22 557.18z" stroke="none" fill="#000000" fill-rule="evenodd" /><path id="197" transform="matrix(1 0 0 -1 0 841)" d="M512.11 556.7L512.59 556.7L512.59 556.7L512.59 557.18L512.59 557.18L512.11 557.18z" stroke="none" fill="#000000" fill-rule="evenodd" /><path id="198" transform="matrix(1 0 0 -1 0 841)" d="M83.064 533.42L83.54401 533.42L83.54401 533.42L83.54401 556.7L83.54401 556.7L83.064 556.7z" stroke="none" fill="#000000" fill-rule="evenodd" /><path id="199" transform="matrix(1 0 0 -1 0 841)" d="M236.74 533.42L237.22 533.42L237.22 533.42L237.22 556.7L237.22 556.7L236.74 556.7z" stroke="none" fill="#000000" fill-rule="evenodd" /><path id="200" transform="matrix(1 0 0 -1 0 841)" d="M512.11 533.42L512.59 533.42L512.59 533.42L512.59 556.7L512.59 556.7L512.11 556.7z" stroke="none" fill="#000000" fill-rule="evenodd" /><g clip-path="url(#30)"><g clip-path="url(#31)"></g><g clip-path="url(#32)"></g></g><g clip-path="url(#33)"><g clip-path="url(#34)"></g><g clip-path="url(#35)"></g></g><path id="208" transform="matrix(1 0 0 -1 0 841)" d="M83.064 532.94L83.54401 532.94L83.54401 532.94L83.54401 533.42L83.54401 533.42L83.064 533.42z" stroke="none" fill="#000000" fill-rule="evenodd" /><path id="209" transform="matrix(1 0 0 -1 0 841)" d="M83.544 532.94L236.734 532.94L236.734 532.94L236.734 533.42L236.734 533.42L83.544 533.42z" stroke="none" fill="#000000" fill-rule="evenodd" /><path id="210" transform="matrix(1 0 0 -1 0 841)" d="M236.74 532.94L237.22 532.94L237.22 532.94L237.22 533.42L237.22 533.42L236.74 533.42z" stroke="none" fill="#000000" fill-rule="evenodd" /><path id="211" transform="matrix(1 0 0 -1 0 841)" d="M237.22 532.94L512.12 532.94L512.12 532.94L512.12 533.42L512.12 533.42L237.22 533.42z" stroke="none" fill="#000000" fill-rule="evenodd" /><path id="212" transform="matrix(1 0 0 -1 0 841)" d="M512.11 532.94L512.59 532.94L512.59 532.94L512.59 533.42L512.59 533.42L512.11 533.42z" stroke="none" fill="#000000" fill-rule="evenodd" /><path id="213" transform="matrix(1 0 0 -1 0 841)" d="M83.064 509.42L83.54401 509.42L83.54401 509.42L83.54401 532.94L83.54401 532.94L83.064 532.94z" stroke="none" fill="#000000" fill-rule="evenodd" /><path id="214" transform="matrix(1 0 0 -1 0 841)" d="M236.74 509.42L237.22 509.42L237.22 509.42L237.22 532.94L237.22 532.94L236.74 532.94z" stroke="none" fill="#000000" fill-rule="evenodd" /><path id="215" transform="matrix(1 0 0 -1 0 841)" d="M512.11 509.42L512.59 509.42L512.59 509.42L512.59 532.94L512.59 532.94L512.11 532.94z" stroke="none" fill="#000000" fill-rule="evenodd" /><g clip-path="url(#36)"><g clip-path="url(#37)"></g><g clip-path="url(#38)"></g></g><path id="220" transform="matrix(1 0 0 -1 0 841)" d="M83.064 508.94L83.54401 508.94L83.54401 508.94L83.54401 509.42L83.54401 509.42L83.064 509.42z" stroke="none" fill="#000000" fill-rule="evenodd" /><path id="221" transform="matrix(1 0 0 -1 0 841)" d="M236.74 508.94L237.22 508.94L237.22 508.94L237.22 509.42L237.22 509.42L236.74 509.42z" stroke="none" fill="#000000" fill-rule="evenodd" /><path id="222" transform="matrix(1 0 0 -1 0 841)" d="M237.22 508.94L512.12 508.94L512.12 508.94L512.12 509.42L512.12 509.42L237.22 509.42z" stroke="none" fill="#000000" fill-rule="evenodd" /><path id="223" transform="matrix(1 0 0 -1 0 841)" d="M512.11 508.94L512.59 508.94L512.59 508.94L512.59 509.42L512.59 509.42L512.11 509.42z" stroke="none" fill="#000000" fill-rule="evenodd" /><path id="224" transform="matrix(1 0 0 -1 0 841)" d="M83.064 485.66L83.54401 485.66L83.54401 485.66L83.54401 508.94L83.54401 508.94L83.064 508.94z" stroke="none" fill="#000000" fill-rule="evenodd" /><path id="225" transform="matrix(1 0 0 -1 0 841)" d="M236.74 485.66L237.22 485.66L237.22 485.66L237.22 508.94L237.22 508.94L236.74 508.94z" stroke="none" fill="#000000" fill-rule="evenodd" /><path id="226" transform="matrix(1 0 0 -1 0 841)" d="M512.11 485.66L512.59 485.66L512.59 485.66L512.59 508.94L512.59 508.94L512.11 508.94z" stroke="none" fill="#000000" fill-rule="evenodd" /><g clip-path="url(#39)"><g clip-path="url(#40)"></g><g clip-path="url(#41)"></g></g><path id="232" transform="matrix(1 0 0 -1 0 841)" d="M83.064 485.18L83.54401 485.18L83.54401 485.18L83.54401 485.66L83.54401 485.66L83.064 485.66z" stroke="none" fill="#000000" fill-rule="evenodd" /><path id="233" transform="matrix(1 0 0 -1 0 841)" d="M236.74 485.18L237.22 485.18L237.22 485.18L237.22 485.66L237.22 485.66L236.74 485.66z" stroke="none" fill="#000000" fill-rule="evenodd" /><path id="234" transform="matrix(1 0 0 -1 0 841)" d="M237.22 485.18L512.12 485.18L512.12 485.18L512.12 485.66L512.12 485.66L237.22 485.66z" stroke="none" fill="#000000" fill-rule="evenodd" /><path id="235" transform="matrix(1 0 0 -1 0 841)" d="M512.11 485.18L512.59 485.18L512.59 485.18L512.59 485.66L512.59 485.66L512.11 485.66z" stroke="none" fill="#000000" fill-rule="evenodd" /><path id="236" transform="matrix(1 0 0 -1 0 841)" d="M83.064 461.88L83.54401 461.88L83.54401 461.88L83.54401 485.184L83.54401 485.184L83.064 485.184z" stroke="none" fill="#000000" fill-rule="evenodd" /><path id="237" transform="matrix(1 0 0 -1 0 841)" d="M236.74 461.88L237.22 461.88L237.22 461.88L237.22 485.184L237.22 485.184L236.74 485.184z" stroke="none" fill="#000000" fill-rule="evenodd" /><path id="238" transform="matrix(1 0 0 -1 0 841)" d="M512.11 461.88L512.59 461.88L512.59 461.88L512.59 485.184L512.59 485.184L512.11 485.184z" stroke="none" fill="#000000" fill-rule="evenodd" /><g clip-path="url(#42)"><g clip-path="url(#43)"></g><g clip-path="url(#44)"></g></g><path id="243" transform="matrix(1 0 0 -1 0 841)" d="M83.064 461.4L83.54401 461.4L83.54401 461.4L83.54401 461.88L83.54401 461.88L83.064 461.88z" stroke="none" fill="#000000" fill-rule="evenodd" /><path id="244" transform="matrix(1 0 0 -1 0 841)" d="M236.74 461.4L237.22 461.4L237.22 461.4L237.22 461.88L237.22 461.88L236.74 461.88z" stroke="none" fill="#000000" fill-rule="evenodd" /><path id="245" transform="matrix(1 0 0 -1 0 841)" d="M237.22 461.4L512.12 461.4L512.12 461.4L512.12 461.88L512.12 461.88L237.22 461.88z" stroke="none" fill="#000000" fill-rule="evenodd" /><path id="246" transform="matrix(1 0 0 -1 0 841)" d="M512.11 461.4L512.59 461.4L512.59 461.4L512.59 461.88L512.59 461.88L512.11 461.88z" stroke="none" fill="#000000" fill-rule="evenodd" /><path id="247" transform="matrix(1 0 0 -1 0 841)" d="M83.064 437.88L83.54401 437.88L83.54401 437.88L83.54401 461.4L83.54401 461.4L83.064 461.4z" stroke="none" fill="#000000" fill-rule="evenodd" /><path id="248" transform="matrix(1 0 0 -1 0 841)" d="M236.74 437.88L237.22 437.88L237.22 437.88L237.22 461.4L237.22 461.4L236.74 461.4z" stroke="none" fill="#000000" fill-rule="evenodd" /><path id="249" transform="matrix(1 0 0 -1 0 841)" d="M512.11 437.88L512.59 437.88L512.59 437.88L512.59 461.4L512.59 461.4L512.11 461.4z" stroke="none" fill="#000000" fill-rule="evenodd" /><g clip-path="url(#45)"><g clip-path="url(#46)"></g><g clip-path="url(#47)"></g></g><g clip-path="url(#48)"><g clip-path="url(#49)"></g><g clip-path="url(#50)"></g></g><path id="255" transform="matrix(1 0 0 -1 0 841)" d="M83.064 437.4L83.54401 437.4L83.54401 437.4L83.54401 437.88L83.54401 437.88L83.064 437.88z" stroke="none" fill="#000000" fill-rule="evenodd" /><path id="256" transform="matrix(1 0 0 -1 0 841)" d="M83.544 437.4L236.734 437.4L236.734 437.4L236.734 437.88L236.734 437.88L83.544 437.88z" stroke="none" fill="#000000" fill-rule="evenodd" /><path id="257" transform="matrix(1 0 0 -1 0 841)" d="M236.74 437.4L237.22 437.4L237.22 437.4L237.22 437.88L237.22 437.88L236.74 437.88z" stroke="none" fill="#000000" fill-rule="evenodd" /><path id="258" transform="matrix(1 0 0 -1 0 841)" d="M237.22 437.4L512.12 437.4L512.12 437.4L512.12 437.88L512.12 437.88L237.22 437.88z" stroke="none" fill="#000000" fill-rule="evenodd" /><path id="259" transform="matrix(1 0 0 -1 0 841)" d="M512.11 437.4L512.59 437.4L512.59 437.4L512.59 437.88L512.59 437.88L512.11 437.88z" stroke="none" fill="#000000" fill-rule="evenodd" /><path id="260" transform="matrix(1 0 0 -1 0 841)" d="M83.064 414.12L83.54401 414.12L83.54401 414.12L83.54401 437.4L83.54401 437.4L83.064 437.4z" stroke="none" fill="#000000" fill-rule="evenodd" /><path id="261" transform="matrix(1 0 0 -1 0 841)" d="M236.74 414.12L237.22 414.12L237.22 414.12L237.22 437.4L237.22 437.4L236.74 437.4z" stroke="none" fill="#000000" fill-rule="evenodd" /><path id="262" transform="matrix(1 0 0 -1 0 841)" d="M512.11 414.12L512.59 414.12L512.59 414.12L512.59 437.4L512.59 437.4L512.11 437.4z" stroke="none" fill="#000000" fill-rule="evenodd" /><g clip-path="url(#51)"><g clip-path="url(#52)"></g><g clip-path="url(#53)"></g></g><path id="266" transform="matrix(1 0 0 -1 0 841)" d="M83.064 413.64L83.54401 413.64L83.54401 413.64L83.54401 414.12L83.54401 414.12L83.064 414.12z" stroke="none" fill="#000000" fill-rule="evenodd" /><path id="267" transform="matrix(1 0 0 -1 0 841)" d="M236.74 413.64L237.22 413.64L237.22 413.64L237.22 414.12L237.22 414.12L236.74 414.12z" stroke="none" fill="#000000" fill-rule="evenodd" /><path id="268" transform="matrix(1 0 0 -1 0 841)" d="M237.22 413.64L512.12 413.64L512.12 413.64L512.12 414.12L512.12 414.12L237.22 414.12z" stroke="none" fill="#000000" fill-rule="evenodd" /><path id="269" transform="matrix(1 0 0 -1 0 841)" d="M512.11 413.64L512.59 413.64L512.59 413.64L512.59 414.12L512.59 414.12L512.11 414.12z" stroke="none" fill="#000000" fill-rule="evenodd" /><path id="270" transform="matrix(1 0 0 -1 0 841)" d="M83.064 390.34L83.54401 390.34L83.54401 390.34L83.54401 413.644L83.54401 413.644L83.064 413.644z" stroke="none" fill="#000000" fill-rule="evenodd" /><path id="271" transform="matrix(1 0 0 -1 0 841)" d="M236.74 390.34L237.22 390.34L237.22 390.34L237.22 413.644L237.22 413.644L236.74 413.644z" stroke="none" fill="#000000" fill-rule="evenodd" /><path id="272" transform="matrix(1 0 0 -1 0 841)" d="M512.11 390.34L512.59 390.34L512.59 390.34L512.59 413.644L512.59 413.644L512.11 413.644z" stroke="none" fill="#000000" fill-rule="evenodd" /><g clip-path="url(#54)"><g clip-path="url(#55)"></g><g clip-path="url(#56)"></g></g><path id="276" transform="matrix(1 0 0 -1 0 841)" d="M83.064 389.86L83.54401 389.86L83.54401 389.86L83.54401 390.34L83.54401 390.34L83.064 390.34z" stroke="none" fill="#000000" fill-rule="evenodd" /><path id="277" transform="matrix(1 0 0 -1 0 841)" d="M236.74 389.86L237.22 389.86L237.22 389.86L237.22 390.34L237.22 390.34L236.74 390.34z" stroke="none" fill="#000000" fill-rule="evenodd" /><path id="278" transform="matrix(1 0 0 -1 0 841)" d="M237.22 389.86L512.12 389.86L512.12 389.86L512.12 390.34L512.12 390.34L237.22 390.34z" stroke="none" fill="#000000" fill-rule="evenodd" /><path id="279" transform="matrix(1 0 0 -1 0 841)" d="M512.11 389.86L512.59 389.86L512.59 389.86L512.59 390.34L512.59 390.34L512.11 390.34z" stroke="none" fill="#000000" fill-rule="evenodd" /><path id="280" transform="matrix(1 0 0 -1 0 841)" d="M83.064 366.34L83.54401 366.34L83.54401 366.34L83.54401 389.86L83.54401 389.86L83.064 389.86z" stroke="none" fill="#000000" fill-rule="evenodd" /><path id="281" transform="matrix(1 0 0 -1 0 841)" d="M236.74 366.34L237.22 366.34L237.22 366.34L237.22 389.86L237.22 389.86L236.74 389.86z" stroke="none" fill="#000000" fill-rule="evenodd" /><path id="282" transform="matrix(1 0 0 -1 0 841)" d="M512.11 366.34L512.59 366.34L512.59 366.34L512.59 389.86L512.59 389.86L512.11 389.86z" stroke="none" fill="#000000" fill-rule="evenodd" /><g clip-path="url(#57)"><g clip-path="url(#58)"></g><g clip-path="url(#59)"></g></g><path id="285" transform="matrix(1 0 0 -1 0 841)" d="M83.064 365.86L83.54401 365.86L83.54401 365.86L83.54401 366.34L83.54401 366.34L83.064 366.34z" stroke="none" fill="#000000" fill-rule="evenodd" /><path id="286" transform="matrix(1 0 0 -1 0 841)" d="M236.74 365.86L237.22 365.86L237.22 365.86L237.22 366.34L237.22 366.34L236.74 366.34z" stroke="none" fill="#000000" fill-rule="evenodd" /><path id="287" transform="matrix(1 0 0 -1 0 841)" d="M237.22 365.86L512.12 365.86L512.12 365.86L512.12 366.34L512.12 366.34L237.22 366.34z" stroke="none" fill="#000000" fill-rule="evenodd" /><path id="288" transform="matrix(1 0 0 -1 0 841)" d="M512.11 365.86L512.59 365.86L512.59 365.86L512.59 366.34L512.59 366.34L512.11 366.34z" stroke="none" fill="#000000" fill-rule="evenodd" /><path id="289" transform="matrix(1 0 0 -1 0 841)" d="M83.064 342.58L83.54401 342.58L83.54401 342.58L83.54401 365.86L83.54401 365.86L83.064 365.86z" stroke="none" fill="#000000" fill-rule="evenodd" /><path id="290" transform="matrix(1 0 0 -1 0 841)" d="M236.74 342.58L237.22 342.58L237.22 342.58L237.22 365.86L237.22 365.86L236.74 365.86z" stroke="none" fill="#000000" fill-rule="evenodd" /><path id="291" transform="matrix(1 0 0 -1 0 841)" d="M512.11 342.58L512.59 342.58L512.59 342.58L512.59 365.86L512.59 365.86L512.11 365.86z" stroke="none" fill="#000000" fill-rule="evenodd" /><g clip-path="url(#60)"><g clip-path="url(#61)"></g><g clip-path="url(#62)"></g><g clip-path="url(#63)"></g></g><g clip-path="url(#64)"><g clip-path="url(#65)"></g><g clip-path="url(#66)"></g></g><path id="298" transform="matrix(1 0 0 -1 0 841)" d="M83.064 342.1L83.54401 342.1L83.54401 342.1L83.54401 342.58L83.54401 342.58L83.064 342.58z" stroke="none" fill="#000000" fill-rule="evenodd" /><path id="299" transform="matrix(1 0 0 -1 0 841)" d="M83.544 342.1L236.734 342.1L236.734 342.1L236.734 342.58L236.734 342.58L83.544 342.58z" stroke="none" fill="#000000" fill-rule="evenodd" /><path id="300" transform="matrix(1 0 0 -1 0 841)" d="M236.74 342.1L237.22 342.1L237.22 342.1L237.22 342.58L237.22 342.58L236.74 342.58z" stroke="none" fill="#000000" fill-rule="evenodd" /><path id="301" transform="matrix(1 0 0 -1 0 841)" d="M237.22 342.1L512.12 342.1L512.12 342.1L512.12 342.58L512.12 342.58L237.22 342.58z" stroke="none" fill="#000000" fill-rule="evenodd" /><path id="302" transform="matrix(1 0 0 -1 0 841)" d="M512.11 342.1L512.59 342.1L512.59 342.1L512.59 342.58L512.59 342.58L512.11 342.58z" stroke="none" fill="#000000" fill-rule="evenodd" /><path id="303" transform="matrix(1 0 0 -1 0 841)" d="M83.064 318.82L83.54401 318.82L83.54401 318.82L83.54401 342.1L83.54401 342.1L83.064 342.1z" stroke="none" fill="#000000" fill-rule="evenodd" /><path id="304" transform="matrix(1 0 0 -1 0 841)" d="M236.74 318.82L237.22 318.82L237.22 318.82L237.22 342.1L237.22 342.1L236.74 342.1z" stroke="none" fill="#000000" fill-rule="evenodd" /><path id="305" transform="matrix(1 0 0 -1 0 841)" d="M512.11 318.82L512.59 318.82L512.59 318.82L512.59 342.1L512.59 342.1L512.11 342.1z" stroke="none" fill="#000000" fill-rule="evenodd" /><g clip-path="url(#67)"><g clip-path="url(#68)"></g><g clip-path="url(#69)"></g></g><path id="309" transform="matrix(1 0 0 -1 0 841)" d="M83.064 318.34L83.54401 318.34L83.54401 318.34L83.54401 318.82L83.54401 318.82L83.064 318.82z" stroke="none" fill="#000000" fill-rule="evenodd" /><path id="310" transform="matrix(1 0 0 -1 0 841)" d="M236.74 318.34L237.22 318.34L237.22 318.34L237.22 318.82L237.22 318.82L236.74 318.82z" stroke="none" fill="#000000" fill-rule="evenodd" /><path id="311" transform="matrix(1 0 0 -1 0 841)" d="M237.22 318.34L512.12 318.34L512.12 318.34L512.12 318.82L512.12 318.82L237.22 318.82z" stroke="none" fill="#000000" fill-rule="evenodd" /><path id="312" transform="matrix(1 0 0 -1 0 841)" d="M512.11 318.34L512.59 318.34L512.59 318.34L512.59 318.82L512.59 318.82L512.11 318.82z" stroke="none" fill="#000000" fill-rule="evenodd" /><path id="313" transform="matrix(1 0 0 -1 0 841)" d="M83.064 294.79L83.54401 294.79L83.54401 294.79L83.54401 318.334L83.54401 318.334L83.064 318.334z" stroke="none" fill="#000000" fill-rule="evenodd" /><path id="314" transform="matrix(1 0 0 -1 0 841)" d="M236.74 294.79L237.22 294.79L237.22 294.79L237.22 318.334L237.22 318.334L236.74 318.334z" stroke="none" fill="#000000" fill-rule="evenodd" /><path id="315" transform="matrix(1 0 0 -1 0 841)" d="M512.11 294.79L512.59 294.79L512.59 294.79L512.59 318.334L512.59 318.334L512.11 318.334z" stroke="none" fill="#000000" fill-rule="evenodd" /><g clip-path="url(#70)"><g clip-path="url(#71)"></g><g clip-path="url(#72)"></g></g><path id="319" transform="matrix(1 0 0 -1 0 841)" d="M83.064 294.31L83.54401 294.31L83.54401 294.31L83.54401 294.79L83.54401 294.79L83.064 294.79z" stroke="none" fill="#000000" fill-rule="evenodd" /><path id="320" transform="matrix(1 0 0 -1 0 841)" d="M236.74 294.31L237.22 294.31L237.22 294.31L237.22 294.79L237.22 294.79L236.74 294.79z" stroke="none" fill="#000000" fill-rule="evenodd" /><path id="321" transform="matrix(1 0 0 -1 0 841)" d="M237.22 294.31L512.12 294.31L512.12 294.31L512.12 294.79L512.12 294.79L237.22 294.79z" stroke="none" fill="#000000" fill-rule="evenodd" /><path id="322" transform="matrix(1 0 0 -1 0 841)" d="M512.11 294.31L512.59 294.31L512.59 294.31L512.59 294.79L512.59 294.79L512.11 294.79z" stroke="none" fill="#000000" fill-rule="evenodd" /><path id="323" transform="matrix(1 0 0 -1 0 841)" d="M83.064 271.03L83.54401 271.03L83.54401 271.03L83.54401 294.31L83.54401 294.31L83.064 294.31z" stroke="none" fill="#000000" fill-rule="evenodd" /><path id="324" transform="matrix(1 0 0 -1 0 841)" d="M236.74 271.03L237.22 271.03L237.22 271.03L237.22 294.31L237.22 294.31L236.74 294.31z" stroke="none" fill="#000000" fill-rule="evenodd" /><path id="325" transform="matrix(1 0 0 -1 0 841)" d="M512.11 271.03L512.59 271.03L512.59 271.03L512.59 294.31L512.59 294.31L512.11 294.31z" stroke="none" fill="#000000" fill-rule="evenodd" /><g clip-path="url(#73)"><g clip-path="url(#74)"></g><g clip-path="url(#75)"></g></g><g clip-path="url(#76)"><g clip-path="url(#77)"></g><g clip-path="url(#78)"></g></g><path id="330" transform="matrix(1 0 0 -1 0 841)" d="M83.064 270.55L83.54401 270.55L83.54401 270.55L83.54401 271.03L83.54401 271.03L83.064 271.03z" stroke="none" fill="#000000" fill-rule="evenodd" /><path id="331" transform="matrix(1 0 0 -1 0 841)" d="M83.544 270.55L236.734 270.55L236.734 270.55L236.734 271.03L236.734 271.03L83.544 271.03z" stroke="none" fill="#000000" fill-rule="evenodd" /><path id="332" transform="matrix(1 0 0 -1 0 841)" d="M236.74 270.55L237.22 270.55L237.22 270.55L237.22 271.03L237.22 271.03L236.74 271.03z" stroke="none" fill="#000000" fill-rule="evenodd" /><path id="333" transform="matrix(1 0 0 -1 0 841)" d="M237.22 270.55L512.12 270.55L512.12 270.55L512.12 271.03L512.12 271.03L237.22 271.03z" stroke="none" fill="#000000" fill-rule="evenodd" /><path id="334" transform="matrix(1 0 0 -1 0 841)" d="M512.11 270.55L512.59 270.55L512.59 270.55L512.59 271.03L512.59 271.03L512.11 271.03z" stroke="none" fill="#000000" fill-rule="evenodd" /><path id="335" transform="matrix(1 0 0 -1 0 841)" d="M83.064 247.27L83.54401 247.27L83.54401 247.27L83.54401 270.55L83.54401 270.55L83.064 270.55z" stroke="none" fill="#000000" fill-rule="evenodd" /><path id="336" transform="matrix(1 0 0 -1 0 841)" d="M83.064 246.79L83.54401 246.79L83.54401 246.79L83.54401 247.27L83.54401 247.27L83.064 247.27z" stroke="none" fill="#000000" fill-rule="evenodd" /><path id="337" transform="matrix(1 0 0 -1 0 841)" d="M83.064 246.79L83.54401 246.79L83.54401 246.79L83.54401 247.27L83.54401 247.27L83.064 247.27z" stroke="none" fill="#000000" fill-rule="evenodd" /><path id="338" transform="matrix(1 0 0 -1 0 841)" d="M83.544 246.79L236.734 246.79L236.734 246.79L236.734 247.27L236.734 247.27L83.544 247.27z" stroke="none" fill="#000000" fill-rule="evenodd" /><path id="339" transform="matrix(1 0 0 -1 0 841)" d="M236.74 247.27L237.22 247.27L237.22 247.27L237.22 270.55L237.22 270.55L236.74 270.55z" stroke="none" fill="#000000" fill-rule="evenodd" /><path id="340" transform="matrix(1 0 0 -1 0 841)" d="M236.74 246.79L237.22 246.79L237.22 246.79L237.22 247.27L237.22 247.27L236.74 247.27z" stroke="none" fill="#000000" fill-rule="evenodd" /><path id="341" transform="matrix(1 0 0 -1 0 841)" d="M237.22 246.79L512.12 246.79L512.12 246.79L512.12 247.27L512.12 247.27L237.22 247.27z" stroke="none" fill="#000000" fill-rule="evenodd" /><path id="342" transform="matrix(1 0 0 -1 0 841)" d="M512.11 247.27L512.59 247.27L512.59 247.27L512.59 270.55L512.59 270.55L512.11 270.55z" stroke="none" fill="#000000" fill-rule="evenodd" /><path id="343" transform="matrix(1 0 0 -1 0 841)" d="M512.11 246.79L512.59 246.79L512.59 246.79L512.59 247.27L512.59 247.27L512.11 247.27z" stroke="none" fill="#000000" fill-rule="evenodd" /><path id="344" transform="matrix(1 0 0 -1 0 841)" d="M512.11 246.79L512.59 246.79L512.59 246.79L512.59 247.27L512.59 247.27L512.11 247.27z" stroke="none" fill="#000000" fill-rule="evenodd" /></g></g></svg>