<svg xmlns="http://www.w3.org/2000/svg" xmlns:xlink="http://www.w3.org/1999/xlink" id="body_4" preserveAspectRatio="xMinYMin meet" viewBox="0 0 793 1121"><defs><clipPath id="1"><path id="" clip-rule="evenodd" transform="matrix(1 0 0 1 0 0)" d="M0 841L0 -0.9199829L0 -0.9199829L595.2 -0.9199829L595.2 -0.9199829L595.2 841L595.2 841L0 841z" /></clipPath><clipPath id="2"><path id="" clip-rule="evenodd" transform="matrix(1 0 0 1 0 0)" d="M0 841.2401L595.44 841.2401L595.44 841.2401L595.44 -0.9199219L595.44 -0.9199219L0 -0.9199219z" /></clipPath><clipPath id="3"><path id="" clip-rule="evenodd" transform="matrix(1 0 0 1 0 0)" d="M295.56 791.32L300.12 791.32L300.12 791.32L300.12 781L300.12 781L295.56 781z" /></clipPath><clipPath id="4"><path id="" clip-rule="evenodd" transform="matrix(1 0 0 1 0 0)" d="M295.56 791.32L300.12 791.32L300.12 791.32L300.12 781L300.12 781L295.56 781z" /></clipPath><clipPath id="5"><path id="" clip-rule="evenodd" transform="matrix(1 0 0 1 0 0)" d="M295.56 791.32L300.12 791.32L300.12 791.32L300.12 781L300.12 781L295.56 781z" /></clipPath></defs><g transform="matrix(1.333333 0 0 1.333333 0 0)"><g clip-path="url(#1)"><path id="1" transform="matrix(1 0 0 -1 0 841)" d="M0 -0.22998L595.45 -0.22998L595.45 -0.22998L595.45 841.92L595.45 841.92L0 841.92z" stroke="none" fill="#FFFFFF" fill-rule="evenodd" /><g clip-path="url(#2)"><path id="19" transform="matrix(1 0 0 -1 0 841)" d="M88.584 772.54L506.834 772.54L506.834 772.54L506.834 773.98L506.834 773.98L88.584 773.98z" stroke="none" fill="#000000" fill-rule="evenodd" /><path id="20" transform="matrix(1 0 0 -1 0 841)" d="M88.584 776.86L506.834 776.86L506.834 776.86L506.834 777.58L506.834 777.58L88.584 777.58z" stroke="none" fill="#000000" fill-rule="evenodd" /></g><g clip-path="url(#3)"><g clip-path="url(#4)"></g><g clip-path="url(#5)"></g></g></g></g></svg>