<svg width="36" height="36" viewBox="0 0 36 36" xmlns="http://www.w3.org/2000/svg"><g fill="none" fill-rule="evenodd"><path d="M0 0h36v36H0z"/><g fill-rule="nonzero"><path d="M18 4.148a6.856 6.856 0 016.857 6.889A6.856 6.856 0 0118 17.926a6.856 6.856 0 01-6.857-6.889A6.856 6.856 0 0118 4.148zM18 3c-4.411 0-8 3.572-8 8.037 0 4.465 3.589 8.037 8 8.037s8-3.572 8-8.037C26 6.572 22.411 3 18 3z" fill="#000"/><path d="M19.557 20.222c5.467 0 9.872 4.028 9.872 8.943v2.526c0 .615-.532 1.16-1.291 1.16H7.862c-.683 0-1.29-.477-1.29-1.16v-2.526c0-4.915 4.404-8.943 9.871-8.943h3.114zm-.014-1.148H16.53c-6.101 0-11.1 4.491-11.1 10.039v2.443c0 1.387 1.25 2.444 2.72 2.444H27.85c1.47 0 2.72-1.123 2.72-2.444v-2.443c.073-5.548-4.926-10.039-11.028-10.039z" fill="#000"/><g stroke="#000" stroke-linecap="round" stroke-linejoin="round"><path d="M28.286 8.74c2.666 3.445 2.285 6.698-1.143 9.76M27.143 18.5c4.19 1.148 6.286 3.827 6.286 8.037"/></g><g stroke="#000" stroke-linecap="round" stroke-linejoin="round"><path d="M7.714 8.74c-2.666 3.445-2.285 6.698 1.143 9.76M8.857 18.5c-4.19 1.148-6.286 3.827-6.286 8.037"/></g></g></g></svg>