<svg width="36" height="36" viewBox="0 0 36 36" xmlns="http://www.w3.org/2000/svg"><g fill="none" fill-rule="evenodd"><path d="M0 0h36v36H0z"/><g stroke="#000"><path d="M13.038 11.818h9.924a.5.5 0 00.5-.5V5a.5.5 0 00-.5-.5h-9.924a.5.5 0 00-.5.5v6.318a.5.5 0 00.5.5zm10.731 19.27H32.5a.5.5 0 00.5-.5V24.27a.5.5 0 00-.5-.5h-8.73a.5.5 0 00-.5.5v6.319a.5.5 0 00.5.5zm-20.269 0h8.73a.5.5 0 00.5-.5V24.27a.5.5 0 00-.5-.5H3.5a.5.5 0 00-.5.5v6.319a.5.5 0 00.5.5zM18 11.907v6.423M27.538 23.27v-4.827H8.462v4.827"/></g></g></svg>