<?xml version="1.0" standalone="no"?>
<!DOCTYPE svg PUBLIC "-//W3C//DTD SVG 1.1//EN" "http://www.w3.org/Graphics/SVG/1.1/DTD/svg11.dtd" >
<svg xmlns="http://www.w3.org/2000/svg">
  <metadata>Created by iconfont</metadata>
  <defs>
  <font id="element-icons" horiz-adv-x="1024">
    <font-face
      font-family="element-icons"
      font-weight="400"
      font-stretch="normal"
      units-per-em="1024"
      ascent="896"
      descent="-128"
    />
      <missing-glyph />
      
      <glyph glyph-name="tianqi-qing" unicode="&#59004;" d="M512 603.47c-121.21 0-219.47-98.26-219.47-219.47S390.79 164.53 512 164.53 731.47 262.79 731.47 384 633.21 603.47 512 603.47z m3.92-388a164.6 164.6 0 1 0 164.6 164.6 164.6 164.6 0 0 0-164.6-164.6zM512 768.07a27.43 27.43 0 0 0 27.43-27.43v-82.3a27.43 27.43 0 1 0-54.87 0v82.3A27.43 27.43 0 0 0 512 768.07zM783.6 655.6a27.43 27.43 0 0 0 0-38.8l-58.21-58.19a27.43 27.43 0 1 0-39.47 38.12l0.67 0.67 58.19 58.21a27.43 27.43 0 0 0 38.79 0zM896.07 384a27.43 27.43 0 0 0-27.43-27.43h-82.3a27.43 27.43 0 1 0 0 54.87h82.3A27.43 27.43 0 0 0 896.07 384zM783.6 112.4a27.43 27.43 0 0 0-38.8 0l-58.19 58.21a27.43 27.43 0 0 0 38.79 38.79l58.19-58.19a27.43 27.43 0 0 0 0-38.79zM512-0.07a27.43 27.43 0 0 0-27.43 27.43v82.3a27.43 27.43 0 1 0 54.87 0v-82.3A27.43 27.43 0 0 0 512-0.07zM240.4 112.4a27.43 27.43 0 0 0 0 38.8l58.21 58.19a27.43 27.43 0 0 0 39.47-38.12l-0.67-0.67-58.19-58.2a27.43 27.43 0 0 0-38.79 0zM127.93 384a27.43 27.43 0 0 0 27.43 27.43h82.3a27.43 27.43 0 1 0 0-54.87h-82.3A27.43 27.43 0 0 0 127.93 384zM240.4 655.6a27.43 27.43 0 0 0 38.8 0l58.19-58.21a27.43 27.43 0 0 0-38.12-39.47l-0.67 0.67-58.2 58.19a27.43 27.43 0 0 0 0 38.79z"  horiz-adv-x="1024" />
      
      <glyph glyph-name="tianqi-ye" unicode="&#58904;" d="M821.248 258.56c-217.6 0-393.728 176.128-393.728 393.728 0 43.008 7.168 84.48 19.968 123.392-178.176-37.376-312.32-195.584-312.32-385.024 0-217.6 176.128-393.728 393.728-393.728 174.08 0 321.536 113.152 373.76 270.336-26.624-5.632-53.76-8.704-81.408-8.704z"  horiz-adv-x="1024" />
      
      <glyph glyph-name="weather-11" unicode="&#59109;" d="M881.987368 418.223158a156.294737 156.294737 0 0 1-156.294736 156.294737A154.677895 154.677895 0 0 1 700.631579 572.631579a215.578947 215.578947 0 0 1-424.96 33.145263 185.667368 185.667368 0 0 1-134.736842-177.04421 181.355789 181.355789 0 0 1 173.002105-182.703158l-33.414737-78.686316a26.947368 26.947368 0 1 1 49.583158-21.018947l49.313684 116.143157a26.947368 26.947368 0 0 1-14.282105 35.301053 26.947368 26.947368 0 0 1-13.473684 1.616842h-35.031579a129.347368 129.347368 0 0 0-14.012632 256.269474l20.749474 2.425263 2.425263 21.288421a161.684211 161.684211 0 0 0 320.943158-18.32421v-8.353685a156.025263 156.025263 0 0 1-47.696842-43.385263 26.947368 26.947368 0 1 1 43.924211-31.528421 102.4 102.4 0 0 0 35.301052 30.450526l4.581053 2.15579 3.503158 1.347368a103.477895 103.477895 0 0 0 17.785263 7.006316h1.616842a99.435789 99.435789 0 0 0 19.941053 2.15579 107.789474 107.789474 0 0 0 102.4-110.484211 109.406316 109.406316 0 0 0-102.4-110.753684H697.936842a26.947368 26.947368 0 0 1-26.947368-15.898948l-67.098948-157.372631a26.947368 26.947368 0 1 1 49.583158-21.018947l60.092632 140.934736h12.934737A161.684211 161.684211 0 0 1 881.987368 410.947368v6.736843 0.538947zM592.842105 298.03789500000005a26.947368 26.947368 0 0 1-35.301052-14.282106l-107.789474-254.113684a26.947368 26.947368 0 1 1 49.583158-21.018947l107.789474 254.113684a26.947368 26.947368 0 0 1-14.282106 35.301053zM485.052632 299.385263a26.947368 26.947368 0 0 1-35.570527-13.743158l-84.614737-189.978947a26.947368 26.947368 0 1 1 49.313685-21.827369l84.614736 190.248422a26.947368 26.947368 0 0 1-13.743157 35.301052z"  horiz-adv-x="1024" />
      
      <glyph glyph-name="customer-group" unicode="&#59432;" d="M632.246857 774.095238c130.56 0 236.422095-105.837714 236.422095-236.422095 0-82.895238-42.666667-155.794286-107.203047-198.022095l192.853333-225.01181A73.142857 73.142857 0 0 0 898.779429-6.095238l-116.443429-0.024381c12.824381 22.186667 16.335238 48.566857 9.99619 73.142857L898.779429 67.047619 651.702857 355.303619l69.705143 45.568a163.279238 163.279238 0 0 1-86.381714 300.056381 287.158857 287.158857 0 0 1-63.341715 65.340952A236.544 236.544 0 0 0 632.246857 774.095238z m-69.90019-471.722667l160.914285-187.733333A73.142857 73.142857 0 0 0 667.672381-6.095238H134.656a73.142857 73.142857 0 0 0-55.53981 120.734476l160.914286 187.733333c20.601905-14.140952 43.154286-25.648762 67.169524-34.035809L134.656 67.047619h533.040762l-172.568381 201.289143c24.039619 8.387048 46.592 19.870476 67.218286 34.035809zM401.188571 774.095238c130.56 0 236.422095-105.837714 236.422096-236.422095 0-130.56-105.862095-236.422095-236.422096-236.422095-130.584381 0-236.422095 105.862095-236.422095 236.422095C164.766476 668.257524 270.60419 774.095238 401.188571 774.095238z m0-73.142857a163.279238 163.279238 0 1 1 0-326.558476 163.279238 163.279238 0 0 1 0 326.558476z"  horiz-adv-x="1024" />
      
      <glyph glyph-name="hide" unicode="&#59460;" d="M825.880381 761.807238l51.736381-51.736381-655.116191-655.11619-51.736381 51.736381 655.116191 655.11619z m-21.479619-191.585524c41.301333-39.497143 81.310476-87.942095 120.027428-145.310476a73.142857 73.142857 0 0 0 2.755048-77.385143l-2.755048-4.437333-6.92419-10.118095C795.184762 155.696762 659.992381 67.047619 512 67.047619c-58.441143 0-114.858667 13.824-169.301333 41.447619l55.100952 55.100952c37.449143-15.701333 75.50781-23.405714 114.200381-23.405714 120.880762 0 235.471238 75.142095 345.088 234.008381l6.704762 9.801143-6.729143 9.825524c-34.279619 49.688381-69.046857 91.184762-104.350476 124.708571l51.687619 51.687619zM512 700.952381c51.44381 0 101.302857-10.703238 149.650286-32.109714l-56.466286-56.490667A289.401905 289.401905 0 0 1 512 627.809524c-120.880762 0-235.471238-75.142095-345.088-234.008381L160.207238 384l6.729143-9.825524c29.549714-42.812952 59.440762-79.530667 89.721905-110.34819l-51.663238-51.663238c-36.132571 36.693333-71.289905 80.335238-105.423238 130.925714a73.142857 73.142857 0 0 0-2.755048 77.385143l2.755048 4.437333 6.92419 10.118095C228.815238 612.303238 364.007619 700.952381 512 700.952381z m152.795429-270.384762a161.694476 161.694476 0 0 0-205.799619-205.799619l65.097142 65.097143a88.600381 88.600381 0 0 1 75.629715 75.629714l65.072762 65.097143zM512 539.282286c6.41219 0 12.751238-0.365714 18.968381-1.097143l-179.541333-179.565714A161.694476 161.694476 0 0 0 512 539.257905z"  horiz-adv-x="1024" />
      
      <glyph glyph-name="prompt" unicode="&#59003;" d="M512 821.333333C270.933333 821.333333 74.666667 625.066667 74.666667 384S270.933333-53.333333 512-53.333333 949.333333 142.933333 949.333333 384 753.066667 821.333333 512 821.333333z m0-810.666666c-204.8 0-373.333333 168.533333-373.333333 373.333333S307.2 757.333333 512 757.333333 885.333333 588.8 885.333333 384 716.8 10.666667 512 10.666667zM512 576m-42.666667 0a42.666667 42.666667 0 1 1 85.333334 0 42.666667 42.666667 0 1 1-85.333334 0ZM512 458.666667c-17.066667 0-32-14.933333-32-32v-234.666667c0-17.066667 14.933333-32 32-32s32 14.933333 32 32V426.666667c0 17.066667-14.933333 32-32 32z"  horiz-adv-x="1024" />
      
      <glyph glyph-name="category" unicode="&#59469;" d="M219.428571 130.169905v-73.142857H121.904762v73.142857h97.523809z m682.666667 0v-73.142857H268.190476v73.142857h633.904762zM219.428571 405.504v-73.142857H121.904762v73.142857h97.523809z m682.666667 0v-73.142857H268.190476v73.142857h633.904762zM219.428571 680.862476v-73.142857H121.904762v73.142857h97.523809z m682.666667 0v-73.142857H268.190476v73.142857h633.904762z"  horiz-adv-x="1024" />
      
      <glyph glyph-name="icon-test" unicode="&#58941;" d="M128 0h768v64H128zM256 192v146.752l224 224L626.752 416l-224-224H256zM608 690.752L754.752 544 672 461.248 525.248 608 608 690.752z m214.624-169.408l0.032 0.032a32 32 0 0 1 0 45.248l-0.032 0.032-191.968 191.968-0.032 0.032a32 32 0 0 1-45.248 0l-0.032-0.032L192 365.248V128h237.248l393.376 393.344z"  horiz-adv-x="1024" />
      
      <glyph glyph-name="icon-test1" unicode="&#58959;" d="M128 640h64V704H128zM320 640h576V704H320zM128 352h64v64H128zM320 352h576v64H320zM128 64h64v64H128zM320 64h576v64H320z"  horiz-adv-x="1024" />
      
      <glyph glyph-name="a-business-icon-Bigpromotion" unicode="&#59426;" d="M590.701714 810.25219L843.093333 783.043048a73.142857 73.142857 0 0 0 64.877715-64.877715l27.209142-252.391619a73.142857 73.142857 0 0 0-21.01638-59.538285L489.764571-18.16381a73.142857 73.142857 0 0 0-103.424 0L106.76419 261.412571a73.142857 73.142857 0 0 0 0 103.424L531.163429 789.23581a73.142857 73.142857 0 0 0 59.538285 21.01638zM582.875429 737.52381L158.47619 313.124571l279.576381-279.576381 424.399239 424.399239-27.209143 252.367238L582.875429 737.52381z m68.486095-90.258286a109.714286 109.714286 0 1 0 0-219.428572 109.714286 109.714286 0 0 0 0 219.428572z m0-73.142857a36.571429 36.571429 0 1 1 0-73.142857 36.571429 36.571429 0 0 1 0 73.142857z"  horiz-adv-x="1024" />
      
      <glyph glyph-name="edit" unicode="&#59459;" d="M720.042667 725.333333v-73.142857H195.047619v-536.380952h585.142857V384h73.142857v-268.190476a73.142857 73.142857 0 0 0-73.142857-73.142857H195.047619a73.142857 73.142857 0 0 0-73.142857 73.142857V652.190476a73.142857 73.142857 0 0 0 73.142857 73.142857h524.995048z m156.281904-27.696762l51.541334-51.882666-392.825905-390.046476-53.101714-1.950477 1.511619 54.028191 392.874666 389.851428z"  horiz-adv-x="1024" />
      
      <glyph glyph-name="discount-fill" unicode="&#59475;" d="M613.64419 815.177143L866.011429 787.968a73.142857 73.142857 0 0 0 64.902095-64.877714l27.184762-252.391619a73.142857 73.142857 0 0 0-20.992-59.538286L512.707048-13.238857a73.142857 73.142857 0 0 0-103.448381 0L129.706667 266.337524a73.142857 73.142857 0 0 0 0 103.424L554.081524 794.160762a73.142857 73.142857 0 0 0 59.562666 21.016381zM674.279619 652.190476a109.714286 109.714286 0 1 1 0-219.428571 109.714286 109.714286 0 0 1 0 219.428571z m0-73.142857a36.571429 36.571429 0 1 0 0-73.142857 36.571429 36.571429 0 0 0 0 73.142857z"  horiz-adv-x="1024" />
      
      <glyph glyph-name="discount" unicode="&#59476;" d="M613.64419 815.177143L866.011429 787.968a73.142857 73.142857 0 0 0 64.902095-64.877714l27.184762-252.391619a73.142857 73.142857 0 0 0-20.992-59.538286L512.707048-13.238857a73.142857 73.142857 0 0 0-103.448381 0L129.706667 266.337524a73.142857 73.142857 0 0 0 0 103.424L554.081524 794.160762a73.142857 73.142857 0 0 0 59.562666 21.016381z m-7.826285-72.728381L181.394286 318.049524l279.576381-279.576381 424.399238 424.399238-27.209143 252.367238-252.367238 27.209143zM674.279619 652.190476a109.714286 109.714286 0 1 0 0-219.428571 109.714286 109.714286 0 0 0 0 219.428571z m0-73.142857a36.571429 36.571429 0 1 1 0-73.142857 36.571429 36.571429 0 0 1 0 73.142857z"  horiz-adv-x="1024" />
      
      <glyph glyph-name="folder" unicode="&#59478;" d="M453.315048 749.714286a73.142857 73.142857 0 0 0 71.411809-57.295238l3.535238-15.847619H828.952381a73.142857 73.142857 0 0 0 73.142857-73.142858v-512a73.142857 73.142857 0 0 0-73.142857-73.142857H195.047619a73.142857 73.142857 0 0 0-73.142857 73.142857V676.571429a73.142857 73.142857 0 0 0 73.142857 73.142857h258.267429z m0-73.142857H195.047619v-585.142858h633.904762V481.52381H496.688762l-43.373714 195.047619zM780.190476 237.714286v-73.142857H243.809524v73.142857h536.380952z m48.761905 365.714285H544.49981l10.849523-48.761904H828.952381v48.761904z"  horiz-adv-x="1024" />
      
      <glyph glyph-name="editor-four-column" unicode="&#59434;" d="M195.047619-6.095238a73.142857 73.142857 0 0 0-73.142857 73.142857V700.952381a73.142857 73.142857 0 0 0 73.142857 73.142857h633.904762a73.142857 73.142857 0 0 0 73.142857-73.142857v-633.904762a73.142857 73.142857 0 0 0-73.142857-73.142857H195.047619z m109.714286 707.047619H195.047619v-633.904762h109.714286V700.952381z m170.666666 0h-97.523809v-633.904762h97.523809V700.952381z m170.666667 0h-97.523809v-633.904762h97.523809V700.952381zM828.952381 700.952381h-109.714286v-633.904762H828.952381V700.952381z"  horiz-adv-x="1024" />
      
      <glyph glyph-name="editor-left-alignment" unicode="&#59435;" d="M170.666667 676.571429h682.666666V749.714286H170.666667v-73.142857z m0-219.428572h487.619047v73.142857H170.666667v-73.142857z m0-219.428571h292.571428v73.142857H170.666667v-73.142857z m0-219.428572h682.666666v73.142857H170.666667v-73.142857z"  horiz-adv-x="1024" />
      
      <glyph glyph-name="money-funds" unicode="&#59441;" d="M689.005714 499.004952c139.312762 0 257.414095-61.586286 261.607619-151.576381l0.073143-4.924952v-152.137143c0-92.647619-119.832381-156.476952-261.705143-156.476952-18.822095 0-37.254095 1.121524-55.100952 3.291428v73.825524c17.310476-2.56 35.815619-3.974095 55.100952-3.974095 106.812952 0 188.586667 43.544381 188.586667 83.358476v41.837714c-29.915429-18.16381-67.413333-31.646476-109.519238-39.277714-25.33181-4.583619-51.931429-6.948571-79.067429-6.948571-18.70019 0-37.156571 1.121524-55.100952 3.315809v73.801143c17.700571-2.633143 36.230095-3.974095 55.100952-3.974095 22.79619 0 45.031619 1.950476 66.023619 5.778286 75.239619 13.628952 122.563048 48.249905 122.563048 77.58019 0 39.789714-81.773714 83.358476-188.586667 83.358476-19.285333 0-37.790476-1.438476-55.100952-3.998476v73.849905a457.045333 457.045333 0 0 0 55.100952 3.291428zM333.04381 761.904762c139.312762 0 257.414095-61.586286 261.607619-151.552l0.073142-4.949333v-458.361905c0-92.647619-119.832381-156.501333-261.705142-156.501334-141.848381 0-261.705143 63.853714-261.705143 156.501334v305.737143 152.649143c0 92.647619 119.856762 156.476952 261.705143 156.476952z m188.586666-573.025524c-29.93981-18.16381-67.437714-31.646476-109.543619-39.277714-25.33181-4.583619-51.931429-6.948571-79.067428-6.948572a444.708571 444.708571 0 0 0-79.043048 6.948572c-42.105905 7.631238-79.60381 21.113905-109.519238 39.253333v-41.813333l0.121905-2.730667c3.608381-39.033905 84.065524-80.62781 188.464762-80.627809 106.788571 0 188.562286 43.544381 188.562285 83.358476v41.837714z m0 153.112381c-29.93981-18.139429-67.437714-31.646476-109.543619-39.253333-25.33181-4.608-51.931429-6.948571-79.067428-6.948572a444.708571 444.708571 0 0 0-79.043048 6.948572c-42.105905 7.606857-79.60381 21.113905-109.519238 39.253333v-42.837333l0.146286-2.852572c2.925714-28.696381 49.590857-61.537524 122.392381-74.727619 20.992-3.803429 43.25181-5.778286 66.023619-5.778285 22.79619 0 45.031619 1.950476 66.023619 5.778285 75.239619 13.653333 122.563048 48.249905 122.563047 77.580191v42.861714z m0 153.136762c-29.93981-18.139429-67.437714-31.646476-109.543619-39.253333-25.33181-4.632381-51.931429-6.972952-79.067428-6.972953a444.708571 444.708571 0 0 0-79.043048 6.948572c-42.105905 7.631238-79.60381 21.113905-109.519238 39.277714V452.266667l0.146286-2.852572c2.925714-28.696381 49.590857-61.513143 122.392381-74.727619 20.992-3.803429 43.25181-5.753905 66.023619-5.753905 22.79619 0 45.031619 1.950476 66.023619 5.753905 75.239619 13.653333 122.563048 48.274286 122.563047 77.580191v0.487619 42.374095zM333.019429 688.761905c-106.788571 0-188.562286-43.544381-188.562286-83.358476 0-29.330286 47.299048-63.951238 122.563047-77.580191 20.967619-3.803429 43.227429-5.778286 65.999239-5.778286 22.79619 0 45.031619 1.974857 66.023619 5.778286 75.239619 13.653333 122.563048 48.249905 122.563047 77.580191 0 39.814095-81.773714 83.358476-188.586666 83.358476z"  horiz-adv-x="1024" />
      
      <glyph glyph-name="product-filter" unicode="&#59443;" d="M964.656762 262.095238a48.761905 48.761905 0 0 0 37.766095-79.62819l-76.8-93.93981V-69.485714l-72.313905 19.407238v165.766095L913.237333 188.952381H741.668571L804.571429 116.053333v-153.039238l-72.874667 19.577905V88.502857l-80.188952 92.940191A48.761905 48.761905 0 0 0 688.420571 262.095238h276.236191zM544.426667 785.310476l295.253333-131.145143a73.142857 73.142857 0 0 0 43.471238-66.852571V310.857143h-73.142857v207.603809L562.785524 408.624762v-393.020952H560.761905v-25.6l-16.359619-7.265524a73.142857 73.142857 0 0 0-59.367619 0L189.732571 113.834667A73.142857 73.142857 0 0 0 146.285714 180.687238V587.312762a73.142857 73.142857 0 0 0 43.446857 66.852571l295.302096 131.120762a73.142857 73.142857 0 0 0 59.367619 0zM219.428571 521.874286v-341.211429l270.214096-120.003047V410.112L219.428571 521.898667z m295.277715 196.534857L235.446857 594.432l292.815238-121.173333 269.141334 119.637333-282.697143 125.561905z"  horiz-adv-x="1024" />
      
      <glyph glyph-name="order-success" unicode="&#59444;" d="M877.738667 237.714286l51.321904-52.102096-198.948571-195.974095L609.52381 108.617143l51.370666 52.077714 69.266286-68.339809L877.738667 237.714286zM268.190476 749.714286h48.761905v-73.118476L268.190476 676.571429v-609.52381h314.051048l74.118095-73.142857H268.190476a73.142857 73.142857 0 0 0-73.142857 73.142857V676.571429a73.142857 73.142857 0 0 0 73.142857 73.142857z m487.619048 0a73.142857 73.142857 0 0 0 73.142857-73.142857l-0.024381-418.450286-73.142857-72.070095L755.809524 676.571429h-48.761905V749.714286h48.761905z m-219.428572-414.476191v-73.142857h-195.047619v73.142857h195.047619z m146.285715 146.285715v-73.142858H341.333333v73.142858h341.333334zM585.142857 822.857143a73.142857 73.142857 0 0 0 73.142857-73.142857v-48.761905a73.142857 73.142857 0 0 0-73.142857-73.142857h-146.285714a73.142857 73.142857 0 0 0-73.142857 73.142857V749.714286a73.142857 73.142857 0 0 0 73.142857 73.142857h146.285714z m0-73.142857h-146.285714v-48.761905h146.285714V749.714286z"  horiz-adv-x="1024" />
      
      <glyph glyph-name="order" unicode="&#59445;" d="M268.190476 749.714286h48.761905v-73.118476L268.190476 676.571429v-609.52381h487.619048V676.571429h-48.761905V749.714286h48.761905a73.142857 73.142857 0 0 0 73.142857-73.142857v-609.52381a73.142857 73.142857 0 0 0-73.142857-73.142857H268.190476a73.142857 73.142857 0 0 0-73.142857 73.142857V676.571429a73.142857 73.142857 0 0 0 73.142857 73.142857z m292.571429-390.095238v-73.142858h-219.428572v73.142858h219.428572z m121.904762 146.285714v-73.142857H341.333333v73.142857h341.333334zM585.142857 822.857143a73.142857 73.142857 0 0 0 73.142857-73.142857v-48.761905a73.142857 73.142857 0 0 0-73.142857-73.142857h-146.285714a73.142857 73.142857 0 0 0-73.142857 73.142857V749.714286a73.142857 73.142857 0 0 0 73.142857 73.142857h146.285714z m0-73.142857h-146.285714v-48.761905h146.285714V749.714286z"  horiz-adv-x="1024" />
      
      <glyph glyph-name="product-checked" unicode="&#59446;" d="M509.123048 768.414476l292.376381-127.122286a65.999238 65.999238 0 0 0 40.082285-60.367238v-273.846857l-73.874285-72.777143V516.705524L521.752381 409.039238v-324.583619l17.871238 7.777524 55.808-55.100953-86.308571-37.546666c-17.432381-7.558095-37.302857-7.558095-54.759619 0L161.987048 126.70781A65.999238 65.999238 0 0 0 121.904762 187.075048V580.924952c0 26.112 15.701333 49.785905 40.082286 60.367238l292.376381 127.122286a68.803048 68.803048 0 0 0 54.759619 0zM850.67581 247.466667l51.321904-52.102096-198.948571-195.974095-120.588191 118.979048 51.370667 52.077714 69.266286-68.339809 147.577905 145.359238zM195.754667 519.216762v-327.850667L448.609524 81.456762V408.527238l-252.854857 110.689524zM481.743238 700.952381L223.280762 588.604952 484.59581 474.209524l258.438095 113.152L481.743238 700.952381z"  horiz-adv-x="1024" />
      
      <glyph glyph-name="order-manage" unicode="&#59447;" d="M774.534095 287.98781a73.142857 73.142857 0 0 0 63.341715-36.571429l43.105523-74.654476a73.142857 73.142857 0 0 0 0-73.142857l-43.105523-74.654477a73.142857 73.142857 0 0 0-63.341715-36.571428h-86.211047a73.142857 73.142857 0 0 0-63.341715 36.571428L581.87581 103.619048a73.142857 73.142857 0 0 0 0 73.142857l43.105523 74.654476a73.142857 73.142857 0 0 0 63.341715 36.571429h86.211047zM268.190476 749.714286h48.761905v-73.118476L268.190476 676.571429v-609.52381h243.809524v-73.142857H268.190476a73.142857 73.142857 0 0 0-73.142857 73.142857V676.571429a73.142857 73.142857 0 0 0 73.142857 73.142857z m506.343619-534.869334h-86.211047L645.217524 140.190476l43.105524-74.654476h86.211047L817.639619 140.190476l-43.105524 74.654476zM731.428571 188.952381a48.761905 48.761905 0 1 0 0-97.52381 48.761905 48.761905 0 0 0 0 97.52381z m-170.666666 170.666667v-73.142858h-219.428572v73.142858h219.428572z m195.047619 390.095238a73.142857 73.142857 0 0 0 73.142857-73.142857l-0.024381-341.333334h-73.142857L755.809524 676.571429h-48.761905V749.714286h48.761905z m-73.142857-243.809524v-73.142857H341.333333v73.142857h341.333334zM585.142857 822.857143a73.142857 73.142857 0 0 0 73.142857-73.142857v-48.761905a73.142857 73.142857 0 0 0-73.142857-73.142857h-146.285714a73.142857 73.142857 0 0 0-73.142857 73.142857V749.714286a73.142857 73.142857 0 0 0 73.142857 73.142857h146.285714z m0-73.142857h-146.285714v-48.761905h146.285714V749.714286z"  horiz-adv-x="1024" />
      
      <glyph glyph-name="order-success-fill" unicode="&#59448;" d="M877.738667 213.333333l51.321904-52.102095-198.948571-195.974095L609.52381 84.23619l51.370666 52.077715 69.266286-68.33981L877.738667 213.333333zM268.190476 749.714286h48.761905v-97.52381a73.142857 73.142857 0 0 1 73.142857-73.142857h243.809524a73.142857 73.142857 0 0 1 73.142857 73.142857V749.714286h48.761905a73.142857 73.142857 0 0 0 73.142857-73.142857l-0.024381-442.831239-98.742857-97.28-69.729524 68.827429-119.881143-121.490286L631.661714-6.095238H268.190476a73.142857 73.142857 0 0 0-73.142857 73.142857V676.571429a73.142857 73.142857 0 0 0 73.142857 73.142857z m243.809524-414.476191h-195.047619v-73.142857h195.047619v73.142857z m146.285714 146.285715H316.952381v-73.142858h341.333333v73.142858zM585.142857 822.857143a73.142857 73.142857 0 0 0 73.142857-73.142857v-48.761905a73.142857 73.142857 0 0 0-73.142857-73.142857h-146.285714a73.142857 73.142857 0 0 0-73.142857 73.142857V749.714286a73.142857 73.142857 0 0 0 73.142857 73.142857h146.285714z m0-73.142857h-146.285714v-48.761905h146.285714V749.714286z"  horiz-adv-x="1024" />
      
      <glyph glyph-name="product-checked-fill" unicode="&#59449;" d="M146.285714 562.883048l343.28381-151.625143-1.852953-429.689905a73.216 73.216 0 0 0-2.681904 1.145905L189.732571 113.834667A73.142857 73.142857 0 0 0 146.285714 180.687238V562.883048zM899.437714 247.466667l51.321905-52.102096-198.948571-195.974095-120.588191 118.979048 51.370667 52.077714 69.266286-68.339809 147.577904 145.359238z m-16.310857 311.369143v-258.901334l-106.691047-105.057524-24.600381-24.234666-69.729524 68.803047-119.881143-121.465904-0.780191-0.804572 1.243429 292.108191 320.438857 149.552762zM544.402286 785.310476l295.253333-131.120762c11.239619-4.998095 20.796952-12.580571 28.038095-21.894095l-339.431619-158.98819-364.324571 161.694476a73.045333 73.045333 0 0 0 25.795047 19.187809l295.302096 131.120762a73.142857 73.142857 0 0 0 59.367619 0z"  horiz-adv-x="1024" />
      
      <glyph glyph-name="product-fill" unicode="&#59450;" d="M121.904762 565.052952l359.619048-154.575238v-451.779047L165.351619 99.05981A73.142857 73.142857 0 0 0 121.904762 165.936762v399.11619z m780.190476 9.337905v-408.454095a73.142857 73.142857 0 0 0-43.446857-66.852572L554.666667-35.888762V414.305524L902.095238 574.415238zM541.696 809.691429l316.952381-140.751239c11.02019-4.87619 20.406857-12.312381 27.599238-21.382095l-371.151238-171.885714-382.537143 164.425143c7.558095 12.483048 18.895238 22.674286 32.792381 28.842666l316.952381 140.751239a73.142857 73.142857 0 0 0 59.392 0z"  horiz-adv-x="1024" />
      
      <glyph glyph-name="product-list-fill" unicode="&#59451;" d="M950.857143 18.285714v-73.142857h-219.428572v73.142857h219.428572z m-268.190476 0v-73.142857h-73.142857v73.142857h73.142857zM146.285714 562.883048l343.28381-151.625143-1.852953-429.689905a73.216 73.216 0 0 0-2.681904 1.145905L189.732571 113.834667A73.142857 73.142857 0 0 0 146.285714 180.687238V562.883048zM950.857143 140.190476v-73.142857h-219.428572v73.142857h219.428572z m-268.190476 0v-73.142857h-73.142857v73.142857h73.142857z m268.190476 121.904762v-73.142857h-219.428572v73.142857h219.428572z m-268.190476 0v-73.142857h-73.142857v73.142857h73.142857z m200.46019 296.740572v-247.954286h-320.853333l0.414476 98.401524 320.438857 149.552762zM544.402286 785.310476l295.253333-131.120762c11.239619-4.998095 20.796952-12.580571 28.038095-21.894095l-339.431619-158.98819-364.324571 161.694476a73.045333 73.045333 0 0 0 25.795047 19.187809l295.302096 131.120762a73.142857 73.142857 0 0 0 59.367619 0z"  horiz-adv-x="1024" />
      
      <glyph glyph-name="product-filter-fill" unicode="&#59452;" d="M964.656762 262.095238a48.761905 48.761905 0 0 0 37.766095-79.62819l-76.8-93.93981V-69.485714l-72.313905 19.407238v165.766095L913.237333 188.952381H741.668571L804.571429 116.053333v-153.039238l-72.874667 19.577905V88.502857l-80.188952 92.940191A48.761905 48.761905 0 0 0 688.420571 262.095238h276.236191zM146.285714 551.765333l343.28381-141.653333-1.804191-428.568381a73.216 73.216 0 0 0-2.730666 1.170286L189.732571 113.834667A73.142857 73.142857 0 0 0 146.285714 180.687238V551.740952z m736.841143-16.798476V310.857143h-190.122667a97.52381 97.52381 0 0 1-68.681142-28.281905l-3.803429-3.998476a97.52381 97.52381 0 0 1 7.241143-137.752381L682.666667 91.428571v-47.299047l-121.709715-54.052572 1.731048 416.963048 320.438857 127.926857zM544.402286 785.310476l295.253333-131.120762a73.142857 73.142857 0 0 0 39.15581-42.057143l-350.549334-138.825142-370.736762 152.990476c7.558095 12.04419 18.651429 21.869714 32.207238 27.891809l295.302096 131.120762a73.142857 73.142857 0 0 0 59.367619 0z"  horiz-adv-x="1024" />
      
      <glyph glyph-name="product-loaction-fill" unicode="&#59453;" d="M800.914286 310.857143c78.750476 0 142.628571-62.049524 142.628571-138.605714l-0.097524-4.876191c-1.755429-45.83619-27.794286-97.328762-70.582857-149.577143-15.969524-19.504762-33.133714-37.692952-50.273524-54.02819l-8.630857-8.045715a517.12 517.12 0 0 0-4.047238-3.657142l-8.996571-7.850667-5.168762 4.437333a602.063238 602.063238 0 0 0-66.779429 69.144381c-42.76419 52.248381-68.827429 103.740952-70.582857 149.552762l-0.073143 2.438095-0.024381 2.438096C658.285714 248.807619 722.16381 310.857143 800.914286 310.857143zM121.904762 565.052952l359.619048-154.575238v-451.779047L165.351619 99.05981A73.142857 73.142857 0 0 0 121.904762 165.936762v399.11619z m780.190476 9.337905l0.024381-243.126857A193.26781 193.26781 0 0 1 800.914286 359.619048C695.515429 359.619048 609.52381 276.041143 609.52381 172.251429l0.121904-6.290286c1.852952-48.444952 22.893714-99.035429 59.928381-150.820572l-114.907428-51.029333V414.305524L902.095238 574.415238zM800.914286 237.714286c-37.400381 0-67.193905-27.623619-69.36381-61.537524l-0.121905-3.925333 0.048762-2.072381c0.975238-25.770667 18.919619-63.097905 54.076953-106.057143 4.924952-5.997714 10.044952-11.946667 15.36-17.846857l7.801904 8.899047 7.558096 8.972191c33.304381 40.667429 51.151238 76.312381 53.784381 101.863619l0.292571 4.144762 0.048762 2.096762c0 35.669333-30.646857 65.462857-69.485714 65.462857z m0-28.745143a40.740571 40.740571 0 1 0 0-81.481143 40.740571 40.740571 0 0 0 0 81.481143zM541.696 809.691429l316.952381-140.751239c11.02019-4.87619 20.406857-12.312381 27.599238-21.382095l-371.151238-171.885714-382.537143 164.425143c7.558095 12.483048 18.895238 22.674286 32.792381 28.842666l316.952381 140.751239a73.142857 73.142857 0 0 0 59.392 0z"  horiz-adv-x="1024" />
      
      <glyph glyph-name="product-loaction" unicode="&#59454;" d="M800.914286 310.857143c78.750476 0 142.628571-62.049524 142.628571-138.605714l-0.097524-4.876191c-1.755429-45.83619-27.794286-97.328762-70.582857-149.577143-15.969524-19.504762-33.133714-37.692952-50.273524-54.02819l-8.630857-8.045715c-1.389714-1.29219-2.730667-2.511238-4.047238-3.657142l-8.996571-7.850667-5.168762 4.437333a602.063238 602.063238 0 0 0-66.779429 69.144381c-42.76419 52.248381-68.827429 103.740952-70.582857 149.552762l-0.073143 2.438095-0.024381 2.438096C658.285714 248.807619 722.16381 310.857143 800.914286 310.857143zM515.437714 761.734095l297.155048-131.949714A68.583619 68.583619 0 0 0 853.333333 567.100952v-204.531809a205.141333 205.141333 0 0 1-68.583619 6.144v131.364571l-257.145904-110.201904v-345.84381l91.209142 40.472381a367.177143 367.177143 0 0 1 32.768-60.464762l-136.143238-60.464762a68.559238 68.559238 0 0 0-55.637333 0L162.620952 95.548952A68.583619 68.583619 0 0 0 121.904762 158.232381V567.100952c0 27.111619 15.969524 51.687619 40.740571 62.659048l297.155048 131.974095a68.583619 68.583619 0 0 0 55.637333 0zM190.464 502.588952V158.232381l268.580571-119.271619V387.462095L190.464 502.588952zM800.914286 237.714286c-37.400381 0-67.193905-27.623619-69.36381-61.537524l-0.121905-3.925333 0.048762-2.072381c0.975238-25.770667 18.919619-63.097905 54.076953-106.057143 4.924952-5.997714 10.044952-11.946667 15.36-17.846857l7.801904 8.899047 7.558096 8.972191c33.304381 40.667429 51.151238 76.312381 53.784381 101.863619l0.292571 4.144762 0.048762 2.096762c0 35.669333-30.646857 65.462857-69.485714 65.462857z m0-28.745143a40.740571 40.740571 0 1 0 0-81.481143 40.740571 40.740571 0 0 0 0 81.481143zM487.619048 699.075048L201.99619 572.220952l288.524191-123.66019 285.549714 122.392381L487.619048 699.075048z"  horiz-adv-x="1024" />
      
      <glyph glyph-name="product" unicode="&#59455;" d="M541.696 809.691429l316.952381-140.775619A73.142857 73.142857 0 0 0 902.095238 602.063238v-436.126476a73.142857 73.142857 0 0 0-43.446857-66.852572l-316.952381-140.751238a73.142857 73.142857 0 0 0-59.392 0l-316.952381 140.751238A73.142857 73.142857 0 0 0 121.904762 165.936762V602.063238a73.142857 73.142857 0 0 0 43.446857 66.852572l316.952381 140.751238a73.142857 73.142857 0 0 0 59.392 0zM195.047619 533.211429v-367.274667l286.476191-127.21981V410.453333L195.047619 533.211429z m633.904762-2.633143l-274.285714-117.516191V44.129524L828.952381 165.936762V530.578286zM512 742.814476L207.335619 607.524571l307.760762-131.900952 304.591238 130.56L512 742.814476z"  horiz-adv-x="1024" />
      
      <glyph glyph-name="product-list" unicode="&#59456;" d="M950.857143 18.285714v-73.142857h-219.428572v73.142857h219.428572z m-268.190476 0v-73.142857h-73.142857v73.142857h73.142857zM544.402286 785.310476l295.253333-131.145143a73.142857 73.142857 0 0 0 43.471238-66.852571V310.857143h-73.142857v207.603809L562.785524 408.624762v-393.020952h-0.097524v-24.746667l-18.285714-8.118857a73.142857 73.142857 0 0 0-59.367619 0L189.732571 113.834667A73.142857 73.142857 0 0 0 146.285714 180.687238V587.312762a73.142857 73.142857 0 0 0 43.446857 66.852571l295.302096 131.120762a73.142857 73.142857 0 0 0 59.367619 0zM219.428571 521.874286v-341.211429l270.214096-120.003047V410.112L219.428571 521.898667zM950.857143 140.190476v-73.142857h-219.428572v73.142857h219.428572z m-268.190476 0v-73.142857h-73.142857v73.142857h73.142857z m268.190476 121.904762v-73.142857h-219.428572v73.142857h219.428572z m-268.190476 0v-73.142857h-73.142857v73.142857h73.142857zM514.706286 718.433524L235.446857 594.432l292.815238-121.173333 269.141334 119.637333-282.697143 125.561905z"  horiz-adv-x="1024" />
      
      <glyph glyph-name="product-get-catalog" unicode="&#59457;" d="M831.024762 261.632v-195.608381l52.370286 52.419048 51.736381-51.736381-85.820953-85.820953 0.316953-0.365714-51.687619-51.712-0.365715 0.341333-0.365714-0.341333-51.736381 51.687619 0.390095 0.365714-85.869714 85.845334 51.736381 51.736381 46.153143-46.177524v189.366857h73.142857zM544.402286 785.310476l295.253333-131.120762a73.142857 73.142857 0 0 0 43.471238-66.852571V310.857143h-73.142857v207.603809L562.785524 408.624762v-393.020952l-0.097524-24.746667-18.285714-8.118857a73.142857 73.142857 0 0 0-59.367619 0L189.732571 113.834667A73.142857 73.142857 0 0 0 146.285714 180.687238V587.312762a73.142857 73.142857 0 0 0 43.446857 66.852571l295.302096 131.120762a73.142857 73.142857 0 0 0 59.367619 0zM219.428571 521.898667v-341.211429l270.214096-120.003048V410.112L219.428571 521.898667z m295.277715 196.534857L235.446857 594.432l292.815238-121.173333 269.141334 119.637333-282.697143 125.561905z"  horiz-adv-x="1024" />
      
      <glyph glyph-name="list" unicode="&#59458;" d="M414.47619 774.095238a73.142857 73.142857 0 0 0 73.142858-73.142857v-219.428571a73.142857 73.142857 0 0 0-73.142858-73.142858H195.047619a73.142857 73.142857 0 0 0-73.142857 73.142858V700.952381a73.142857 73.142857 0 0 0 73.142857 73.142857h219.428571zM195.047619 700.952381v-219.428571h219.428571V700.952381H195.047619z m219.428571-341.333333a73.142857 73.142857 0 0 0 73.142858-73.142858v-219.428571a73.142857 73.142857 0 0 0-73.142858-73.142857H195.047619a73.142857 73.142857 0 0 0-73.142857 73.142857v219.428571a73.142857 73.142857 0 0 0 73.142857 73.142858h219.428571z m-219.428571-73.142858v-219.428571h219.428571v219.428571H195.047619zM536.380952 713.142857v-73.142857h353.52381v73.142857H536.380952zM536.380952 286.47619v-73.142857h353.52381v73.142857H536.380952z m0 268.190477v-73.142857h353.52381v73.142857H536.380952z m0-426.666667v-73.142857h353.52381v73.142857H536.380952z"  horiz-adv-x="1024" />
      
      <glyph glyph-name="professional" unicode="&#59491;" d="M746.179048 659.163429l127.024762-76.214858A109.714286 109.714286 0 0 0 926.47619 488.862476V91.428571a109.714286 109.714286 0 0 0-109.714285-109.714285h-585.142857A109.714286 109.714286 0 0 0 121.904762 91.428571V488.862476a109.714286 109.714286 0 0 0 53.272381 94.110476l127.024762 76.190477 37.619809-62.70781-127.024762-76.214857A36.571429 36.571429 0 0 1 195.047619 488.838095V91.428571a36.571429 36.571429 0 0 1 36.571429-36.571428h585.142857A36.571429 36.571429 0 0 1 853.333333 91.428571V488.862476a36.571429 36.571429 0 0 1-17.749333 31.378286l-127.024762 76.214857 37.61981 62.70781zM524.190476 798.47619l146.285714-87.771428-62.293333-131.657143h-2.121143L646.095238 244.126476 524.190476 140.190476l-121.904762 103.936L442.294857 579.047619h-1.706667L377.904762 710.704762l146.285714 87.771428z m17.578667-219.428571h-35.181714l-36.864-308.540952 54.467047-46.421334 54.467048 46.421334L541.744762 579.047619zM524.190476 713.167238L472.502857 682.179048 486.765714 652.190476h75.093334l14.140952 29.891048L524.190476 713.142857z"  horiz-adv-x="1024" />
      
      <glyph glyph-name="training-fill" unicode="&#59503;" d="M926.47619 774.095238v-73.142857h-48.761904v-487.619048c0-40.399238-35.108571-73.142857-78.360381-73.142857h-170.691048l129.999238-146.285714h-97.865143l-130.023619 146.285714h-13.214476l-129.999238-146.285714h-97.840762l129.974857 146.285714h-195.047619C181.394286 140.190476 146.285714 172.934095 146.285714 213.333333V700.952381H97.52381V774.095238h828.95238zM390.095238 432.761905h-73.142857v-73.142857h73.142857v73.142857z m316.952381 0H438.857143v-73.142857h268.190476v73.142857z m0 121.904762H438.857143v-73.142857h268.190476v73.142857z m-316.952381 0h-73.142857v-73.142857h73.142857v73.142857z"  horiz-adv-x="1024" />
      
    </font>
</defs>
</svg>
